<svg xmlns="http://www.w3.org/2000/svg" width="17" height="16" viewBox="0 0 17 16" fill="none">
<path d="M14.1037 6.35378L9.10372 11.3538C9.05729 11.4003 9.00214 11.4372 8.94144 11.4623C8.88074 11.4875 8.81568 11.5004 8.74997 11.5004C8.68427 11.5004 8.6192 11.4875 8.5585 11.4623C8.4978 11.4372 8.44266 11.4003 8.39622 11.3538L3.39622 6.35378C3.3024 6.25996 3.24969 6.13272 3.24969 6.00003C3.24969 5.86735 3.3024 5.7401 3.39622 5.64628C3.49004 5.55246 3.61729 5.49976 3.74997 5.49976C3.88265 5.49976 4.0099 5.55246 4.10372 5.64628L8.74997 10.2932L13.3962 5.64628C13.4427 5.59983 13.4978 5.56298 13.5585 5.53784C13.6192 5.5127 13.6843 5.49976 13.75 5.49976C13.8157 5.49976 13.8807 5.5127 13.9414 5.53784C14.0021 5.56298 14.0573 5.59983 14.1037 5.64628C14.1502 5.69274 14.187 5.74789 14.2122 5.80859C14.2373 5.86928 14.2503 5.93434 14.2503 6.00003C14.2503 6.06573 14.2373 6.13079 14.2122 6.19148C14.187 6.25218 14.1502 6.30733 14.1037 6.35378Z" fill="#555770"/>
</svg>
