<svg xmlns="http://www.w3.org/2000/svg" width="25" height="24" viewBox="0 0 25 24" fill="none">
<path d="M21.125 2.625H3.875C3.46016 2.625 3.125 2.96016 3.125 3.375V20.625C3.125 21.0398 3.46016 21.375 3.875 21.375H21.125C21.5398 21.375 21.875 21.0398 21.875 20.625V3.375C21.875 2.96016 21.5398 2.625 21.125 2.625ZM12.5258 12.143L8.02578 15.9164C7.90391 16.0195 7.71875 15.9328 7.71875 15.7734V14.3039C7.71875 14.25 7.74453 14.1961 7.78672 14.1609L10.3602 12L7.78672 9.83906C7.76518 9.82205 7.74784 9.8003 7.73605 9.77551C7.72427 9.75072 7.71835 9.72354 7.71875 9.69609V8.22656C7.71875 8.06719 7.90391 7.98047 8.02578 8.08359L12.5258 11.8547C12.6172 11.9297 12.6172 12.068 12.5258 12.143ZM17.2812 15.7734C17.2812 15.8766 17.2016 15.9609 17.1055 15.9609H12.7695C12.6734 15.9609 12.5938 15.8766 12.5938 15.7734V14.6484C12.5938 14.5453 12.6734 14.4609 12.7695 14.4609H17.1055C17.2016 14.4609 17.2812 14.5453 17.2812 14.6484V15.7734Z" fill="white"/>
</svg>
