<svg xmlns="http://www.w3.org/2000/svg" width="17" height="16" viewBox="0 0 17 16" fill="none">
  <path d="M13.6038 10.3537C13.5573 10.4001 13.5022 10.437 13.4415 10.4622C13.3808 10.4873 13.3157 10.5003 13.25 10.5003C13.1843 10.5003 13.1193 10.4873 13.0586 10.4622C12.9979 10.437 12.9427 10.4001 12.8963 10.3537L8.25003 5.70678L3.60378 10.3537C3.50996 10.4475 3.38272 10.5002 3.25003 10.5002C3.11735 10.5002 2.9901 10.4475 2.89628 10.3537C2.80246 10.2598 2.74976 10.1326 2.74976 9.9999C2.74976 9.86722 2.80246 9.73997 2.89628 9.64615L7.89628 4.64615C7.94272 4.59967 7.99786 4.56279 8.05856 4.53763C8.11926 4.51246 8.18433 4.49951 8.25003 4.49951C8.31574 4.49951 8.38081 4.51246 8.4415 4.53763C8.5022 4.56279 8.55735 4.59967 8.60378 4.64615L13.6038 9.64615C13.6503 9.69259 13.6872 9.74774 13.7123 9.80843C13.7375 9.86913 13.7504 9.9342 13.7504 9.9999C13.7504 10.0656 13.7375 10.1307 13.7123 10.1914C13.6872 10.2521 13.6503 10.3072 13.6038 10.3537Z" fill="#FB6055"/>
</svg>