<svg width="740" height="273" viewBox="0 0 740 273" fill="none" xmlns="http://www.w3.org/2000/svg">
<rect width="740" height="270" rx="14" fill="#FAFAFC"/>
<line y1="37.5" x2="740" y2="37.5" stroke="#EBEBF0"/>
<circle cx="25" cy="21" r="8" fill="#FB6055"/>
<circle cx="49" cy="21" r="8" fill="#FFCC00"/>
<circle cx="73" cy="21" r="8" fill="#06C270"/>
<g filter="url(#filter0_d_352_11516)">
<g clip-path="url(#clip0_352_11516)">
<rect x="127" y="71" width="150" height="150.063" rx="16" fill="white"/>
<line x1="277.5" y1="71" x2="277.5" y2="221" stroke="#EBEBF0"/>
<line x1="127" y1="130.5" x2="277" y2="130.5" stroke="#EBEBF0"/>
<line x1="217.5" y1="71.0254" x2="217.5" y2="221.025" stroke="#EBEBF0"/>
<line x1="127" y1="85.5" x2="277" y2="85.5" stroke="#EBEBF0"/>
<line x1="262.5" y1="71.0063" x2="262.5" y2="221.006" stroke="#EBEBF0"/>
<line x1="127" y1="145.5" x2="277" y2="145.5" stroke="#EBEBF0"/>
<line x1="202.5" y1="71.0317" x2="202.5" y2="221.032" stroke="#EBEBF0"/>
<line x1="127" y1="190.5" x2="277" y2="190.5" stroke="#EBEBF0"/>
<line x1="157.5" y1="71.0508" x2="157.5" y2="221.051" stroke="#EBEBF0"/>
<line x1="127" y1="100.5" x2="277" y2="100.5" stroke="#EBEBF0"/>
<line x1="247.5" y1="71.0127" x2="247.5" y2="221.013" stroke="#EBEBF0"/>
<line x1="127" y1="160.5" x2="277" y2="160.5" stroke="#EBEBF0"/>
<line x1="187.5" y1="71.0381" x2="187.5" y2="221.038" stroke="#EBEBF0"/>
<line x1="127" y1="205.5" x2="277" y2="205.5" stroke="#EBEBF0"/>
<line x1="142.5" y1="71.0571" x2="142.5" y2="221.057" stroke="#EBEBF0"/>
<line x1="127" y1="115.5" x2="277" y2="115.5" stroke="#EBEBF0"/>
<line x1="232.5" y1="71.019" x2="232.5" y2="221.019" stroke="#EBEBF0"/>
<line x1="127" y1="175.5" x2="277" y2="175.5" stroke="#EBEBF0"/>
<line x1="172.5" y1="71.0444" x2="172.5" y2="221.044" stroke="#EBEBF0"/>
<line x1="127" y1="220.5" x2="277" y2="220.5" stroke="#EBEBF0"/>
<line x1="127.5" y1="71.0635" x2="127.5" y2="221.063" stroke="#EBEBF0"/>
<path d="M203.596 120.869L200.037 118.997L208.653 116L205.282 124.803L203.596 120.869Z" fill="#7C50A4"/>
<path d="M175.596 137.869L172.037 135.997L180.653 133L177.282 141.803L175.596 137.869Z" fill="#2CD13B"/>
<path d="M190.596 102.869L187.037 100.997L195.653 98L192.282 106.803L190.596 102.869Z" fill="#E07F96"/>
<path d="M233.596 135.869L230.037 133.997L238.653 131L235.282 139.803L233.596 135.869Z" fill="#E07F96"/>
<path d="M224.596 158.869L221.037 156.997L229.653 154L226.282 162.803L224.596 158.869Z" fill="#EDED31"/>
<path d="M260.596 118.869L257.037 116.997L265.653 114L262.282 122.803L260.596 118.869Z" fill="#EDED31"/>
<path d="M215.596 97.8695L212.037 95.9967L220.653 93L217.282 101.803L215.596 97.8695Z" fill="#8D8D8D"/>
<path d="M169.596 177.869L166.037 175.997L174.653 173L171.282 181.803L169.596 177.869Z" fill="#2CD13B"/>
<path d="M145.596 137.869L142.037 135.997L150.653 133L147.282 141.803L145.596 137.869Z" fill="#7C50A4"/>
<path d="M199.596 188.869L196.037 186.997L204.653 184L201.282 192.803L199.596 188.869Z" fill="#E07F96"/>
<path d="M169.596 200.869L166.037 198.997L174.653 196L171.282 204.803L169.596 200.869Z" fill="#7C50A4"/>
<path d="M139.596 210.869L136.037 208.997L144.653 206L141.282 214.803L139.596 210.869Z" fill="#8D8D8D"/>
<path d="M219.596 208.869L216.037 206.997L224.653 204L221.282 212.803L219.596 208.869Z" fill="#7C50A4"/>
<path d="M254.596 160.869L251.037 158.997L259.653 156L256.282 164.803L254.596 160.869Z" fill="#7C50A4"/>
</g>
</g>
<line x1="161.412" y1="101.717" x2="198.412" y2="155.717" stroke="#EBEBF0"/>
<line x1="161.494" y1="102.076" x2="149.494" y2="180.076" stroke="#EBEBF0"/>
<line x1="198.241" y1="153.438" x2="149.241" y2="180.438" stroke="#EBEBF0"/>
<line x1="198.334" y1="152.628" x2="248.334" y2="197.628" stroke="#EBEBF0"/>
<path d="M238.75 73.75H246.25V81.25H238.75V73.75ZM225.625 83.125H259.375V86.875H248.125V111.25H244.375V100H240.625V111.25H236.875V86.875H225.625V83.125Z" fill="#345DA9"/>
<path d="M145.75 157.75H153.25V165.25H145.75V157.75ZM132.625 167.125H166.375V170.875H155.125V195.25H151.375V184H147.625V195.25H143.875V170.875H132.625V167.125Z" fill="#345DA9"/>
<path d="M193.75 134.75H201.25V142.25H193.75V134.75ZM180.625 144.125H214.375V147.875H203.125V172.25H199.375V161H195.625V172.25H191.875V147.875H180.625V144.125Z" fill="#345DA9"/>
<path d="M244.75 179.75H252.25V187.25H244.75V179.75ZM231.625 189.125H265.375V192.875H254.125V217.25H250.375V206H246.625V217.25H242.875V192.875H231.625V189.125Z" fill="#345DA9"/>
<path d="M157.75 83.75H165.25V91.25H157.75V83.75ZM144.625 93.125H178.375V96.875H167.125V121.25H163.375V110H159.625V121.25H155.875V96.875H144.625V93.125Z" fill="#345DA9"/>
<g filter="url(#filter1_d_352_11516)">
<rect x="457" y="44" width="151" height="36" rx="10" fill="white"/>
</g>
<rect x="507" y="56" width="79" height="12" rx="6" fill="#EBEBF0"/>
<circle cx="479" cy="62" r="13" fill="#06C270"/>
<path d="M485.172 58.3124C485.142 58.2374 485.094 58.171 485.032 58.1186C484.971 58.0663 484.897 58.0298 484.818 58.0121C484.74 57.9944 484.658 57.9961 484.579 58.017C484.501 58.038 484.429 58.0776 484.37 58.1324L481.851 60.4568L480.774 60.2255L480.543 59.1487L482.867 56.6299C482.922 56.5705 482.962 56.4986 482.983 56.4205C483.004 56.3424 483.006 56.2604 482.988 56.1815C482.97 56.1026 482.934 56.0291 482.881 55.9675C482.829 55.9058 482.762 55.8577 482.687 55.8274C482.004 55.5511 481.264 55.4467 480.531 55.5235C479.798 55.6004 479.095 55.856 478.484 56.2681C477.873 56.6801 477.373 57.2359 477.027 57.8866C476.681 58.5373 476.5 59.263 476.5 59.9999C476.499 60.6222 476.627 61.238 476.875 61.8087L473.112 65.0624C473.102 65.0699 473.094 65.0787 473.085 65.0868C472.71 65.4619 472.499 65.9707 472.499 66.5012C472.499 66.7638 472.551 67.0239 472.651 67.2666C472.752 67.5093 472.899 67.7298 473.085 67.9155C473.271 68.1013 473.491 68.2486 473.734 68.3491C473.977 68.4497 474.237 68.5014 474.499 68.5014C475.03 68.5014 475.539 68.2907 475.914 67.9155C475.922 67.9074 475.931 67.898 475.938 67.8893L479.191 64.1249C479.877 64.4257 480.626 64.5509 481.372 64.489C482.118 64.4272 482.836 64.1803 483.463 63.7708C484.089 63.3612 484.603 62.8019 484.959 62.1435C485.315 61.4851 485.501 60.7483 485.5 59.9999C485.501 59.4215 485.39 58.8484 485.172 58.3124ZM481 63.4999C480.408 63.4991 479.826 63.3486 479.308 63.0624C479.208 63.007 479.091 62.9877 478.979 63.0078C478.866 63.028 478.763 63.0863 478.688 63.173L475.194 67.2193C475.005 67.3989 474.754 67.4976 474.493 67.4942C474.232 67.4909 473.983 67.3858 473.798 67.2014C473.614 67.017 473.509 66.7679 473.506 66.5071C473.502 66.2464 473.601 65.9946 473.781 65.8055L477.824 62.3124C477.911 62.2374 477.969 62.1347 477.989 62.0217C478.009 61.9087 477.99 61.7922 477.934 61.6918C477.616 61.1153 477.466 60.4606 477.503 59.8029C477.54 59.1452 477.761 58.5112 478.142 57.9739C478.523 57.4365 479.048 57.0176 479.657 56.7653C480.265 56.5129 480.932 56.4374 481.582 56.5474L479.632 58.6605C479.578 58.7194 479.538 58.7904 479.517 58.8676C479.496 58.9449 479.494 59.026 479.511 59.1043L479.864 60.7499C479.885 60.844 479.932 60.9303 480 60.9984C480.068 61.0665 480.154 61.1134 480.248 61.1337L481.895 61.4874C481.973 61.5042 482.054 61.502 482.132 61.4809C482.209 61.4598 482.28 61.4204 482.339 61.3662L484.452 59.4162C484.536 59.918 484.51 60.4323 484.375 60.923C484.241 61.4138 484.001 61.8694 483.672 62.258C483.344 62.6467 482.935 62.9591 482.473 63.1736C482.012 63.388 481.509 63.4994 481 63.4999Z" fill="white"/>
<g filter="url(#filter2_d_352_11516)">
<rect x="457" y="86" width="151" height="36" rx="10" fill="white"/>
</g>
<rect x="507" y="98" width="79" height="12" rx="6" fill="#EBEBF0"/>
<circle cx="479" cy="104" r="13" fill="#06C270"/>
<path d="M485.172 100.312C485.142 100.237 485.094 100.171 485.032 100.119C484.971 100.066 484.897 100.03 484.818 100.012C484.74 99.9944 484.658 99.9961 484.579 100.017C484.501 100.038 484.429 100.078 484.37 100.132L481.851 102.457L480.774 102.226L480.543 101.149L482.867 98.6299C482.922 98.5705 482.962 98.4986 482.983 98.4205C483.004 98.3424 483.006 98.2604 482.988 98.1815C482.97 98.1026 482.934 98.0291 482.881 97.9675C482.829 97.9058 482.762 97.8577 482.687 97.8274C482.004 97.5511 481.264 97.4467 480.531 97.5235C479.798 97.6004 479.095 97.856 478.484 98.2681C477.873 98.6801 477.373 99.2359 477.027 99.8866C476.681 100.537 476.5 101.263 476.5 102C476.499 102.622 476.627 103.238 476.875 103.809L473.112 107.062C473.102 107.07 473.094 107.079 473.085 107.087C472.71 107.462 472.499 107.971 472.499 108.501C472.499 108.764 472.551 109.024 472.651 109.267C472.752 109.509 472.899 109.73 473.085 109.916C473.271 110.101 473.491 110.249 473.734 110.349C473.977 110.45 474.237 110.501 474.499 110.501C475.03 110.501 475.539 110.291 475.914 109.916C475.922 109.907 475.931 109.898 475.938 109.889L479.191 106.125C479.877 106.426 480.626 106.551 481.372 106.489C482.118 106.427 482.836 106.18 483.463 105.771C484.089 105.361 484.603 104.802 484.959 104.143C485.315 103.485 485.501 102.748 485.5 102C485.501 101.422 485.39 100.848 485.172 100.312ZM481 105.5C480.408 105.499 479.826 105.349 479.308 105.062C479.208 105.007 479.091 104.988 478.979 105.008C478.866 105.028 478.763 105.086 478.688 105.173L475.194 109.219C475.005 109.399 474.754 109.498 474.493 109.494C474.232 109.491 473.983 109.386 473.798 109.201C473.614 109.017 473.509 108.768 473.506 108.507C473.502 108.246 473.601 107.995 473.781 107.806L477.824 104.312C477.911 104.237 477.969 104.135 477.989 104.022C478.009 103.909 477.99 103.792 477.934 103.692C477.616 103.115 477.466 102.461 477.503 101.803C477.54 101.145 477.761 100.511 478.142 99.9739C478.523 99.4365 479.048 99.0176 479.657 98.7653C480.265 98.5129 480.932 98.4374 481.582 98.5474L479.632 100.661C479.578 100.719 479.538 100.79 479.517 100.868C479.496 100.945 479.494 101.026 479.511 101.104L479.864 102.75C479.885 102.844 479.932 102.93 480 102.998C480.068 103.066 480.154 103.113 480.248 103.134L481.895 103.487C481.973 103.504 482.054 103.502 482.132 103.481C482.209 103.46 482.28 103.42 482.339 103.366L484.452 101.416C484.536 101.918 484.51 102.432 484.375 102.923C484.241 103.414 484.001 103.869 483.672 104.258C483.344 104.647 482.935 104.959 482.473 105.174C482.012 105.388 481.509 105.499 481 105.5Z" fill="white"/>
<g filter="url(#filter3_d_352_11516)">
<rect x="457" y="128" width="151" height="36" rx="10" fill="white"/>
</g>
<circle cx="479" cy="146" r="13" fill="#06C270"/>
<path d="M485.172 142.312C485.142 142.237 485.094 142.171 485.032 142.119C484.971 142.066 484.897 142.03 484.818 142.012C484.74 141.994 484.658 141.996 484.579 142.017C484.501 142.038 484.429 142.078 484.37 142.132L481.851 144.457L480.774 144.226L480.543 143.149L482.867 140.63C482.922 140.57 482.962 140.499 482.983 140.421C483.004 140.342 483.006 140.26 482.988 140.181C482.97 140.103 482.934 140.029 482.881 139.967C482.829 139.906 482.762 139.858 482.687 139.827C482.004 139.551 481.264 139.447 480.531 139.524C479.798 139.6 479.095 139.856 478.484 140.268C477.873 140.68 477.373 141.236 477.027 141.887C476.681 142.537 476.5 143.263 476.5 144C476.499 144.622 476.627 145.238 476.875 145.809L473.112 149.062C473.102 149.07 473.094 149.079 473.085 149.087C472.71 149.462 472.499 149.971 472.499 150.501C472.499 150.764 472.551 151.024 472.651 151.267C472.752 151.509 472.899 151.73 473.085 151.916C473.271 152.101 473.491 152.249 473.734 152.349C473.977 152.45 474.237 152.501 474.499 152.501C475.03 152.501 475.539 152.291 475.914 151.916C475.922 151.907 475.931 151.898 475.938 151.889L479.191 148.125C479.877 148.426 480.626 148.551 481.372 148.489C482.118 148.427 482.836 148.18 483.463 147.771C484.089 147.361 484.603 146.802 484.959 146.143C485.315 145.485 485.501 144.748 485.5 144C485.501 143.422 485.39 142.848 485.172 142.312ZM481 147.5C480.408 147.499 479.826 147.349 479.308 147.062C479.208 147.007 479.091 146.988 478.979 147.008C478.866 147.028 478.763 147.086 478.688 147.173L475.194 151.219C475.005 151.399 474.754 151.498 474.493 151.494C474.232 151.491 473.983 151.386 473.798 151.201C473.614 151.017 473.509 150.768 473.506 150.507C473.502 150.246 473.601 149.995 473.781 149.806L477.824 146.312C477.911 146.237 477.969 146.135 477.989 146.022C478.009 145.909 477.99 145.792 477.934 145.692C477.616 145.115 477.466 144.461 477.503 143.803C477.54 143.145 477.761 142.511 478.142 141.974C478.523 141.437 479.048 141.018 479.657 140.765C480.265 140.513 480.932 140.437 481.582 140.547L479.632 142.661C479.578 142.719 479.538 142.79 479.517 142.868C479.496 142.945 479.494 143.026 479.511 143.104L479.864 144.75C479.885 144.844 479.932 144.93 480 144.998C480.068 145.066 480.154 145.113 480.248 145.134L481.895 145.487C481.973 145.504 482.054 145.502 482.132 145.481C482.209 145.46 482.28 145.42 482.339 145.366L484.452 143.416C484.536 143.918 484.51 144.432 484.375 144.923C484.241 145.414 484.001 145.869 483.672 146.258C483.344 146.647 482.935 146.959 482.473 147.174C482.012 147.388 481.509 147.499 481 147.5Z" fill="white"/>
<rect x="507" y="140" width="79" height="12" rx="6" fill="#EBEBF0"/>
<g filter="url(#filter4_d_352_11516)">
<rect x="457" y="170" width="151" height="36" rx="10" fill="white"/>
</g>
<circle cx="479" cy="188" r="13" fill="#06C270"/>
<path d="M485.172 184.312C485.142 184.237 485.094 184.171 485.032 184.119C484.971 184.066 484.897 184.03 484.818 184.012C484.74 183.994 484.658 183.996 484.579 184.017C484.501 184.038 484.429 184.078 484.37 184.132L481.851 186.457L480.774 186.226L480.543 185.149L482.867 182.63C482.922 182.57 482.962 182.499 482.983 182.421C483.004 182.342 483.006 182.26 482.988 182.181C482.97 182.103 482.934 182.029 482.881 181.967C482.829 181.906 482.762 181.858 482.687 181.827C482.004 181.551 481.264 181.447 480.531 181.524C479.798 181.6 479.095 181.856 478.484 182.268C477.873 182.68 477.373 183.236 477.027 183.887C476.681 184.537 476.5 185.263 476.5 186C476.499 186.622 476.627 187.238 476.875 187.809L473.112 191.062C473.102 191.07 473.094 191.079 473.085 191.087C472.71 191.462 472.499 191.971 472.499 192.501C472.499 192.764 472.551 193.024 472.651 193.267C472.752 193.509 472.899 193.73 473.085 193.916C473.271 194.101 473.491 194.249 473.734 194.349C473.977 194.45 474.237 194.501 474.499 194.501C475.03 194.501 475.539 194.291 475.914 193.916C475.922 193.907 475.931 193.898 475.938 193.889L479.191 190.125C479.877 190.426 480.626 190.551 481.372 190.489C482.118 190.427 482.836 190.18 483.463 189.771C484.089 189.361 484.603 188.802 484.959 188.143C485.315 187.485 485.501 186.748 485.5 186C485.501 185.422 485.39 184.848 485.172 184.312ZM481 189.5C480.408 189.499 479.826 189.349 479.308 189.062C479.208 189.007 479.091 188.988 478.979 189.008C478.866 189.028 478.763 189.086 478.688 189.173L475.194 193.219C475.005 193.399 474.754 193.498 474.493 193.494C474.232 193.491 473.983 193.386 473.798 193.201C473.614 193.017 473.509 192.768 473.506 192.507C473.502 192.246 473.601 191.995 473.781 191.806L477.824 188.312C477.911 188.237 477.969 188.135 477.989 188.022C478.009 187.909 477.99 187.792 477.934 187.692C477.616 187.115 477.466 186.461 477.503 185.803C477.54 185.145 477.761 184.511 478.142 183.974C478.523 183.437 479.048 183.018 479.657 182.765C480.265 182.513 480.932 182.437 481.582 182.547L479.632 184.661C479.578 184.719 479.538 184.79 479.517 184.868C479.496 184.945 479.494 185.026 479.511 185.104L479.864 186.75C479.885 186.844 479.932 186.93 480 186.998C480.068 187.066 480.154 187.113 480.248 187.134L481.895 187.487C481.973 187.504 482.054 187.502 482.132 187.481C482.209 187.46 482.28 187.42 482.339 187.366L484.452 185.416C484.536 185.918 484.51 186.432 484.375 186.923C484.241 187.414 484.001 187.869 483.672 188.258C483.344 188.647 482.935 188.959 482.473 189.174C482.012 189.388 481.509 189.499 481 189.5Z" fill="white"/>
<rect x="507" y="182" width="79" height="12" rx="6" fill="#EBEBF0"/>
<g filter="url(#filter5_d_352_11516)">
<rect x="457" y="212" width="151" height="36" rx="10" fill="white"/>
</g>
<circle cx="479" cy="230" r="13" fill="#06C270"/>
<path d="M485.172 226.312C485.142 226.237 485.094 226.171 485.032 226.119C484.971 226.066 484.897 226.03 484.818 226.012C484.74 225.994 484.658 225.996 484.579 226.017C484.501 226.038 484.429 226.078 484.37 226.132L481.851 228.457L480.774 228.226L480.543 227.149L482.867 224.63C482.922 224.57 482.962 224.499 482.983 224.421C483.004 224.342 483.006 224.26 482.988 224.181C482.97 224.103 482.934 224.029 482.881 223.967C482.829 223.906 482.762 223.858 482.687 223.827C482.004 223.551 481.264 223.447 480.531 223.524C479.798 223.6 479.095 223.856 478.484 224.268C477.873 224.68 477.373 225.236 477.027 225.887C476.681 226.537 476.5 227.263 476.5 228C476.499 228.622 476.627 229.238 476.875 229.809L473.112 233.062C473.102 233.07 473.094 233.079 473.085 233.087C472.71 233.462 472.499 233.971 472.499 234.501C472.499 234.764 472.551 235.024 472.651 235.267C472.752 235.509 472.899 235.73 473.085 235.916C473.271 236.101 473.491 236.249 473.734 236.349C473.977 236.45 474.237 236.501 474.499 236.501C475.03 236.501 475.539 236.291 475.914 235.916C475.922 235.907 475.931 235.898 475.938 235.889L479.191 232.125C479.877 232.426 480.626 232.551 481.372 232.489C482.118 232.427 482.836 232.18 483.463 231.771C484.089 231.361 484.603 230.802 484.959 230.143C485.315 229.485 485.501 228.748 485.5 228C485.501 227.422 485.39 226.848 485.172 226.312ZM481 231.5C480.408 231.499 479.826 231.349 479.308 231.062C479.208 231.007 479.091 230.988 478.979 231.008C478.866 231.028 478.763 231.086 478.688 231.173L475.194 235.219C475.005 235.399 474.754 235.498 474.493 235.494C474.232 235.491 473.983 235.386 473.798 235.201C473.614 235.017 473.509 234.768 473.506 234.507C473.502 234.246 473.601 233.995 473.781 233.806L477.824 230.312C477.911 230.237 477.969 230.135 477.989 230.022C478.009 229.909 477.99 229.792 477.934 229.692C477.616 229.115 477.466 228.461 477.503 227.803C477.54 227.145 477.761 226.511 478.142 225.974C478.523 225.437 479.048 225.018 479.657 224.765C480.265 224.513 480.932 224.437 481.582 224.547L479.632 226.661C479.578 226.719 479.538 226.79 479.517 226.868C479.496 226.945 479.494 227.026 479.511 227.104L479.864 228.75C479.885 228.844 479.932 228.93 480 228.998C480.068 229.066 480.154 229.113 480.248 229.134L481.895 229.487C481.973 229.504 482.054 229.502 482.132 229.481C482.209 229.46 482.28 229.42 482.339 229.366L484.452 227.416C484.536 227.918 484.51 228.432 484.375 228.923C484.241 229.414 484.001 229.869 483.672 230.258C483.344 230.647 482.935 230.959 482.473 231.174C482.012 231.388 481.509 231.499 481 231.5Z" fill="white"/>
<rect x="507" y="224" width="79" height="12" rx="6" fill="#EBEBF0"/>
<defs>
<filter id="filter0_d_352_11516" x="97" y="41" width="210" height="210.063" filterUnits="userSpaceOnUse" color-interpolation-filters="sRGB">
<feFlood flood-opacity="0" result="BackgroundImageFix"/>
<feColorMatrix in="SourceAlpha" type="matrix" values="0 0 0 0 0 0 0 0 0 0 0 0 0 0 0 0 0 0 127 0" result="hardAlpha"/>
<feOffset/>
<feGaussianBlur stdDeviation="15"/>
<feComposite in2="hardAlpha" operator="out"/>
<feColorMatrix type="matrix" values="0 0 0 0 0.0235294 0 0 0 0 0.439216 0 0 0 0 0.929412 0 0 0 0.25 0"/>
<feBlend mode="normal" in2="BackgroundImageFix" result="effect1_dropShadow_352_11516"/>
<feBlend mode="normal" in="SourceGraphic" in2="effect1_dropShadow_352_11516" result="shape"/>
</filter>
<filter id="filter1_d_352_11516" x="432" y="29" width="191" height="76" filterUnits="userSpaceOnUse" color-interpolation-filters="sRGB">
<feFlood flood-opacity="0" result="BackgroundImageFix"/>
<feColorMatrix in="SourceAlpha" type="matrix" values="0 0 0 0 0 0 0 0 0 0 0 0 0 0 0 0 0 0 127 0" result="hardAlpha"/>
<feMorphology radius="10" operator="erode" in="SourceAlpha" result="effect1_dropShadow_352_11516"/>
<feOffset dx="-5" dy="5"/>
<feGaussianBlur stdDeviation="15"/>
<feComposite in2="hardAlpha" operator="out"/>
<feColorMatrix type="matrix" values="0 0 0 0 0.4 0 0 0 0 0.4 0 0 0 0 0.4 0 0 0 0.25 0"/>
<feBlend mode="normal" in2="BackgroundImageFix" result="effect1_dropShadow_352_11516"/>
<feBlend mode="normal" in="SourceGraphic" in2="effect1_dropShadow_352_11516" result="shape"/>
</filter>
<filter id="filter2_d_352_11516" x="432" y="71" width="191" height="76" filterUnits="userSpaceOnUse" color-interpolation-filters="sRGB">
<feFlood flood-opacity="0" result="BackgroundImageFix"/>
<feColorMatrix in="SourceAlpha" type="matrix" values="0 0 0 0 0 0 0 0 0 0 0 0 0 0 0 0 0 0 127 0" result="hardAlpha"/>
<feMorphology radius="10" operator="erode" in="SourceAlpha" result="effect1_dropShadow_352_11516"/>
<feOffset dx="-5" dy="5"/>
<feGaussianBlur stdDeviation="15"/>
<feComposite in2="hardAlpha" operator="out"/>
<feColorMatrix type="matrix" values="0 0 0 0 0.4 0 0 0 0 0.4 0 0 0 0 0.4 0 0 0 0.25 0"/>
<feBlend mode="normal" in2="BackgroundImageFix" result="effect1_dropShadow_352_11516"/>
<feBlend mode="normal" in="SourceGraphic" in2="effect1_dropShadow_352_11516" result="shape"/>
</filter>
<filter id="filter3_d_352_11516" x="432" y="113" width="191" height="76" filterUnits="userSpaceOnUse" color-interpolation-filters="sRGB">
<feFlood flood-opacity="0" result="BackgroundImageFix"/>
<feColorMatrix in="SourceAlpha" type="matrix" values="0 0 0 0 0 0 0 0 0 0 0 0 0 0 0 0 0 0 127 0" result="hardAlpha"/>
<feMorphology radius="10" operator="erode" in="SourceAlpha" result="effect1_dropShadow_352_11516"/>
<feOffset dx="-5" dy="5"/>
<feGaussianBlur stdDeviation="15"/>
<feComposite in2="hardAlpha" operator="out"/>
<feColorMatrix type="matrix" values="0 0 0 0 0.4 0 0 0 0 0.4 0 0 0 0 0.4 0 0 0 0.25 0"/>
<feBlend mode="normal" in2="BackgroundImageFix" result="effect1_dropShadow_352_11516"/>
<feBlend mode="normal" in="SourceGraphic" in2="effect1_dropShadow_352_11516" result="shape"/>
</filter>
<filter id="filter4_d_352_11516" x="432" y="155" width="191" height="76" filterUnits="userSpaceOnUse" color-interpolation-filters="sRGB">
<feFlood flood-opacity="0" result="BackgroundImageFix"/>
<feColorMatrix in="SourceAlpha" type="matrix" values="0 0 0 0 0 0 0 0 0 0 0 0 0 0 0 0 0 0 127 0" result="hardAlpha"/>
<feMorphology radius="10" operator="erode" in="SourceAlpha" result="effect1_dropShadow_352_11516"/>
<feOffset dx="-5" dy="5"/>
<feGaussianBlur stdDeviation="15"/>
<feComposite in2="hardAlpha" operator="out"/>
<feColorMatrix type="matrix" values="0 0 0 0 0.4 0 0 0 0 0.4 0 0 0 0 0.4 0 0 0 0.25 0"/>
<feBlend mode="normal" in2="BackgroundImageFix" result="effect1_dropShadow_352_11516"/>
<feBlend mode="normal" in="SourceGraphic" in2="effect1_dropShadow_352_11516" result="shape"/>
</filter>
<filter id="filter5_d_352_11516" x="432" y="197" width="191" height="76" filterUnits="userSpaceOnUse" color-interpolation-filters="sRGB">
<feFlood flood-opacity="0" result="BackgroundImageFix"/>
<feColorMatrix in="SourceAlpha" type="matrix" values="0 0 0 0 0 0 0 0 0 0 0 0 0 0 0 0 0 0 127 0" result="hardAlpha"/>
<feMorphology radius="10" operator="erode" in="SourceAlpha" result="effect1_dropShadow_352_11516"/>
<feOffset dx="-5" dy="5"/>
<feGaussianBlur stdDeviation="15"/>
<feComposite in2="hardAlpha" operator="out"/>
<feColorMatrix type="matrix" values="0 0 0 0 0.4 0 0 0 0 0.4 0 0 0 0 0.4 0 0 0 0.25 0"/>
<feBlend mode="normal" in2="BackgroundImageFix" result="effect1_dropShadow_352_11516"/>
<feBlend mode="normal" in="SourceGraphic" in2="effect1_dropShadow_352_11516" result="shape"/>
</filter>
<clipPath id="clip0_352_11516">
<rect x="127" y="71" width="150" height="150.063" rx="16" fill="white"/>
</clipPath>
</defs>
</svg>
