<svg width="34" height="43" viewBox="0 0 34 43" fill="none" xmlns="http://www.w3.org/2000/svg">
<g id="Group">
<path id="Vector" d="M16.9425 21.07C7.8375 21.07 0.442505 28.45 0.442505 37.57V42.82H33.4275V37.57C33.4275 28.45 26.0475 21.07 16.9425 21.07Z" fill="#56436B"/>
<path id="Vector_2" d="M16.9425 21.07C7.8375 21.07 0.442505 28.45 0.442505 37.57V42.82H33.4275V37.57C33.4275 28.45 26.0475 21.07 16.9425 21.07Z" fill="url(#paint0_radial_1162_873)"/>
<path id="Vector_3" d="M16.9425 21.07C7.8375 21.07 0.442505 28.45 0.442505 37.57V42.82H33.4275V37.57C33.4275 28.45 26.0475 21.07 16.9425 21.07Z" fill="url(#paint1_radial_1162_873)"/>
<path id="Vector_4" d="M27.4665 24.97C27.502 24.8979 27.5125 24.8161 27.4965 24.7374C27.4805 24.6587 27.4388 24.5875 27.378 24.535C24.594 22.1305 20.859 20.8045 16.947 20.8045C13.035 20.8045 9.27751 22.1455 6.49201 24.535C6.43095 24.5873 6.38899 24.6584 6.3727 24.7371C6.35641 24.8159 6.36672 24.8978 6.40201 24.97C8.31601 28.87 12.036 31.891 16.947 31.891C21.858 31.891 25.542 28.8685 27.4665 24.97Z" fill="url(#paint2_radial_1162_873)"/>
<path id="Vector_5" d="M27.4665 24.97C27.502 24.8979 27.5125 24.8161 27.4965 24.7374C27.4805 24.6587 27.4388 24.5875 27.378 24.535C24.594 22.1305 20.859 20.8045 16.947 20.8045C13.035 20.8045 9.27751 22.1455 6.49201 24.535C6.43095 24.5873 6.38899 24.6584 6.3727 24.7371C6.35641 24.8159 6.36672 24.8978 6.40201 24.97C8.31601 28.87 12.036 31.891 16.947 31.891C21.858 31.891 25.542 28.8685 27.4665 24.97Z" fill="url(#paint3_radial_1162_873)"/>
<path id="Vector_6" d="M27.4665 24.97C27.502 24.8979 27.5125 24.8161 27.4965 24.7374C27.4805 24.6587 27.4388 24.5875 27.378 24.535C24.594 22.1305 20.859 20.8045 16.947 20.8045C13.035 20.8045 9.27751 22.1455 6.49201 24.535C6.43095 24.5873 6.38899 24.6584 6.3727 24.7371C6.35641 24.8159 6.36672 24.8978 6.40201 24.97C8.31601 28.87 12.036 31.891 16.947 31.891C21.858 31.891 25.542 28.8685 27.4665 24.97Z" fill="url(#paint4_radial_1162_873)"/>
<path id="Vector_7" d="M27.4665 24.97C27.502 24.8979 27.5125 24.8161 27.4965 24.7374C27.4805 24.6587 27.4388 24.5875 27.378 24.535C24.594 22.1305 20.859 20.8045 16.947 20.8045C13.035 20.8045 9.27751 22.1455 6.49201 24.535C6.43095 24.5873 6.38899 24.6584 6.3727 24.7371C6.35641 24.8159 6.36672 24.8978 6.40201 24.97C8.31601 28.87 12.036 31.891 16.947 31.891C21.858 31.891 25.542 28.8685 27.4665 24.97Z" fill="url(#paint5_radial_1162_873)"/>
<path id="Vector_8" d="M27.4665 24.97C27.502 24.8979 27.5125 24.8161 27.4965 24.7374C27.4805 24.6587 27.4388 24.5875 27.378 24.535C24.594 22.1305 20.859 20.8045 16.947 20.8045C13.035 20.8045 9.27751 22.1455 6.49201 24.535C6.43095 24.5873 6.38899 24.6584 6.3727 24.7371C6.35641 24.8159 6.36672 24.8978 6.40201 24.97C8.31601 28.87 12.036 31.891 16.947 31.891C21.858 31.891 25.542 28.8685 27.4665 24.97Z" fill="url(#paint6_radial_1162_873)"/>
<path id="Vector_9" d="M27.4665 24.97C27.502 24.8979 27.5125 24.8161 27.4965 24.7374C27.4805 24.6587 27.4388 24.5875 27.378 24.535C24.594 22.1305 20.859 20.8045 16.947 20.8045C13.035 20.8045 9.27751 22.1455 6.49201 24.535C6.43095 24.5873 6.38899 24.6584 6.3727 24.7371C6.35641 24.8159 6.36672 24.8978 6.40201 24.97C8.31601 28.87 12.036 31.891 16.947 31.891C21.858 31.891 25.542 28.8685 27.4665 24.97Z" fill="url(#paint7_radial_1162_873)"/>
<path id="Vector_10" d="M24.1875 15.868C24.6915 15.8515 25.1655 15.6805 25.5495 15.403V16.8055C25.553 17.4553 25.3629 18.0915 25.0033 18.6328C24.6437 19.1741 24.1309 19.5959 23.5305 19.8445C23.7855 19.2985 23.9625 18.7045 24.051 18.0685L24.1875 15.868Z" fill="url(#paint8_radial_1162_873)"/>
<path id="Vector_11" d="M24.1875 15.868C24.6915 15.8515 25.1655 15.6805 25.5495 15.403V16.8055C25.553 17.4553 25.3629 18.0915 25.0033 18.6328C24.6437 19.1741 24.1309 19.5959 23.5305 19.8445C23.7855 19.2985 23.9625 18.7045 24.051 18.0685L24.1875 15.868Z" fill="url(#paint9_radial_1162_873)"/>
<path id="Vector_12" d="M9.53999 15.8695C9.05039 15.853 8.57678 15.6912 8.17949 15.4045V16.807C8.17597 17.4569 8.36614 18.093 8.72575 18.6343C9.08535 19.1756 9.59808 19.5974 10.1985 19.846C9.93653 19.2836 9.76105 18.6849 9.67799 18.07L9.53999 15.8695Z" fill="url(#paint10_radial_1162_873)"/>
<path id="Vector_13" d="M9.53999 15.8695C9.05039 15.853 8.57678 15.6912 8.17949 15.4045V16.807C8.17597 17.4569 8.36614 18.093 8.72575 18.6343C9.08535 19.1756 9.59808 19.5974 10.1985 19.846C9.93653 19.2836 9.76105 18.6849 9.67799 18.07L9.53999 15.8695Z" fill="url(#paint11_radial_1162_873)"/>
<path id="Vector_14" d="M16.494 26.125C16.5885 26.191 16.749 26.245 16.914 26.2525C17.0627 26.2483 17.2076 26.2048 17.334 26.1265C18.8595 25.0825 20.004 24.0415 20.004 22.246V16.7965C20.004 15.0865 18.624 13.7065 16.914 13.7065C15.204 13.7065 13.824 15.0865 13.824 16.7965V22.246C13.824 24.0415 14.97 25.0795 16.494 26.125Z" fill="url(#paint12_radial_1162_873)"/>
<g id="Group_2" filter="url(#filter0_ii_1162_873)">
<path id="Vector_15" d="M9.59702 18.151C9.78351 19.5709 10.4803 20.8745 11.5572 21.8185C12.6342 22.7624 14.0179 23.2823 15.45 23.281H18.291C19.7231 23.2823 21.1068 22.7624 22.1838 21.8185C23.2608 20.8745 23.9575 19.5709 24.144 18.151C24.3225 15.3145 24.501 12.4885 24.633 9.652C24.6272 9.09533 24.4088 8.56193 24.0226 8.16096C23.6364 7.75999 23.1116 7.52175 22.5555 7.495H20.445C19.7391 7.49338 19.0487 7.28705 18.4577 6.901C17.8666 6.51496 17.4002 5.96577 17.115 5.32C17.0411 5.13445 16.9132 4.97529 16.748 4.86301C16.5828 4.75073 16.3878 4.69048 16.188 4.69H14.271C11.49 4.69 9.23853 6.9685 9.23853 9.7795C9.23853 12.583 9.41252 15.34 9.59702 18.1495" fill="url(#paint13_radial_1162_873)"/>
</g>
<path id="Vector_16" d="M9.59702 18.151C9.78351 19.5709 10.4803 20.8745 11.5572 21.8185C12.6342 22.7624 14.0179 23.2823 15.45 23.281H18.291C19.7231 23.2823 21.1068 22.7624 22.1838 21.8185C23.2608 20.8745 23.9575 19.5709 24.144 18.151C24.3225 15.3145 24.501 12.4885 24.633 9.652C24.6272 9.09533 24.4088 8.56193 24.0226 8.16096C23.6364 7.75999 23.1116 7.52175 22.5555 7.495H20.445C19.7391 7.49338 19.0487 7.28705 18.4577 6.901C17.8666 6.51496 17.4002 5.96577 17.115 5.32C17.0411 5.13445 16.9132 4.97529 16.748 4.86301C16.5828 4.75073 16.3878 4.69048 16.188 4.69H14.271C11.49 4.69 9.23853 6.9685 9.23853 9.7795C9.23853 12.583 9.41252 15.34 9.59702 18.1495" fill="url(#paint14_radial_1162_873)"/>
<path id="Vector_17" d="M9.59702 18.151C9.78351 19.5709 10.4803 20.8745 11.5572 21.8185C12.6342 22.7624 14.0179 23.2823 15.45 23.281H18.291C19.7231 23.2823 21.1068 22.7624 22.1838 21.8185C23.2608 20.8745 23.9575 19.5709 24.144 18.151C24.3225 15.3145 24.501 12.4885 24.633 9.652C24.6272 9.09533 24.4088 8.56193 24.0226 8.16096C23.6364 7.75999 23.1116 7.52175 22.5555 7.495H20.445C19.7391 7.49338 19.0487 7.28705 18.4577 6.901C17.8666 6.51496 17.4002 5.96577 17.115 5.32C17.0411 5.13445 16.9132 4.97529 16.748 4.86301C16.5828 4.75073 16.3878 4.69048 16.188 4.69H14.271C11.49 4.69 9.23853 6.9685 9.23853 9.7795C9.23853 12.583 9.41252 15.34 9.59702 18.1495" fill="url(#paint15_radial_1162_873)"/>
<path id="Vector_18" d="M9.59702 18.151C9.78351 19.5709 10.4803 20.8745 11.5572 21.8185C12.6342 22.7624 14.0179 23.2823 15.45 23.281H18.291C19.7231 23.2823 21.1068 22.7624 22.1838 21.8185C23.2608 20.8745 23.9575 19.5709 24.144 18.151C24.3225 15.3145 24.501 12.4885 24.633 9.652C24.6272 9.09533 24.4088 8.56193 24.0226 8.16096C23.6364 7.75999 23.1116 7.52175 22.5555 7.495H20.445C19.7391 7.49338 19.0487 7.28705 18.4577 6.901C17.8666 6.51496 17.4002 5.96577 17.115 5.32C17.0411 5.13445 16.9132 4.97529 16.748 4.86301C16.5828 4.75073 16.3878 4.69048 16.188 4.69H14.271C11.49 4.69 9.23853 6.9685 9.23853 9.7795C9.23853 12.583 9.41252 15.34 9.59702 18.1495" fill="url(#paint16_radial_1162_873)"/>
<path id="Vector_19" d="M9.59702 18.151C9.78351 19.5709 10.4803 20.8745 11.5572 21.8185C12.6342 22.7624 14.0179 23.2823 15.45 23.281H18.291C19.7231 23.2823 21.1068 22.7624 22.1838 21.8185C23.2608 20.8745 23.9575 19.5709 24.144 18.151C24.3225 15.3145 24.501 12.4885 24.633 9.652C24.6272 9.09533 24.4088 8.56193 24.0226 8.16096C23.6364 7.75999 23.1116 7.52175 22.5555 7.495H20.445C19.7391 7.49338 19.0487 7.28705 18.4577 6.901C17.8666 6.51496 17.4002 5.96577 17.115 5.32C17.0411 5.13445 16.9132 4.97529 16.748 4.86301C16.5828 4.75073 16.3878 4.69048 16.188 4.69H14.271C11.49 4.69 9.23853 6.9685 9.23853 9.7795C9.23853 12.583 9.41252 15.34 9.59702 18.1495" fill="url(#paint17_radial_1162_873)"/>
<path id="Vector_20" d="M9.59702 18.151C9.78351 19.5709 10.4803 20.8745 11.5572 21.8185C12.6342 22.7624 14.0179 23.2823 15.45 23.281H18.291C19.7231 23.2823 21.1068 22.7624 22.1838 21.8185C23.2608 20.8745 23.9575 19.5709 24.144 18.151C24.3225 15.3145 24.501 12.4885 24.633 9.652C24.6272 9.09533 24.4088 8.56193 24.0226 8.16096C23.6364 7.75999 23.1116 7.52175 22.5555 7.495H20.445C19.7391 7.49338 19.0487 7.28705 18.4577 6.901C17.8666 6.51496 17.4002 5.96577 17.115 5.32C17.0411 5.13445 16.9132 4.97529 16.748 4.86301C16.5828 4.75073 16.3878 4.69048 16.188 4.69H14.271C11.49 4.69 9.23853 6.9685 9.23853 9.7795C9.23853 12.583 9.41252 15.34 9.59702 18.1495" fill="url(#paint18_radial_1162_873)"/>
<g id="Group_3" filter="url(#filter1_f_1162_873)">
<path id="Vector_21" d="M16.1325 13.2055L15.1755 15.973C15.012 16.543 15.4035 17.113 15.96 17.113H17.145C17.7 17.113 18.09 16.534 17.928 15.973L17.127 13.2055C16.956 12.5905 16.311 12.5905 16.1325 13.2055Z" fill="#EE9020"/>
</g>
<g id="Group_4" filter="url(#filter2_f_1162_873)">
<path id="Vector_22" d="M16.2885 12.91L15.4875 15.6775C15.324 16.2475 15.717 16.8175 16.272 16.8175H17.457C18.012 16.8175 18.402 16.2385 18.24 15.6775L17.439 12.91C17.268 12.2965 16.467 12.2965 16.2885 12.91Z" fill="url(#paint19_linear_1162_873)"/>
<path id="Vector_23" d="M16.2885 12.91L15.4875 15.6775C15.324 16.2475 15.717 16.8175 16.272 16.8175H17.457C18.012 16.8175 18.402 16.2385 18.24 15.6775L17.439 12.91C17.268 12.2965 16.467 12.2965 16.2885 12.91Z" fill="url(#paint20_linear_1162_873)"/>
<path id="Vector_24" d="M16.2885 12.91L15.4875 15.6775C15.324 16.2475 15.717 16.8175 16.272 16.8175H17.457C18.012 16.8175 18.402 16.2385 18.24 15.6775L17.439 12.91C17.268 12.2965 16.467 12.2965 16.2885 12.91Z" fill="url(#paint21_linear_1162_873)"/>
<path id="Vector_25" d="M16.2885 12.91L15.4875 15.6775C15.324 16.2475 15.717 16.8175 16.272 16.8175H17.457C18.012 16.8175 18.402 16.2385 18.24 15.6775L17.439 12.91C17.268 12.2965 16.467 12.2965 16.2885 12.91Z" fill="url(#paint22_linear_1162_873)"/>
</g>
<g id="Group_5" filter="url(#filter3_f_1162_873)">
<path id="Vector_26" d="M14.829 17.755C15.417 18.061 16.1175 18.2365 16.8645 18.2365C17.619 18.2365 18.312 18.061 18.8985 17.7565L18.9 17.755C18.9659 17.7208 19.041 17.7088 19.1142 17.7207C19.1874 17.7326 19.2549 17.7678 19.3065 17.821C19.3596 17.8745 19.3923 17.9449 19.3988 18.02C19.4054 18.0951 19.3855 18.1701 19.3425 18.232M14.829 17.755L19.2495 18.169M14.829 17.755C14.7626 17.7208 14.6868 17.7092 14.6132 17.7219C14.5396 17.7346 14.4721 17.771 14.421 17.8255C14.3685 17.8785 14.3363 17.9482 14.33 18.0225C14.3237 18.0968 14.3437 18.171 14.3865 18.232M14.829 17.755L14.4795 18.169M19.3425 18.232L19.2495 18.169M19.3425 18.232C18.8175 19.027 17.904 19.5565 16.8645 19.5565C16.3741 19.558 15.8911 19.4377 15.4586 19.2065C15.0261 18.9754 14.6578 18.6405 14.3865 18.232M19.2495 18.169C18.744 18.934 17.865 19.444 16.8645 19.444C16.3925 19.4456 15.9274 19.33 15.5112 19.1074C15.0949 18.8849 14.7404 18.5624 14.4795 18.169M14.3865 18.232V18.2335L14.4795 18.169M14.3865 18.232L14.4795 18.169" stroke="url(#paint23_radial_1162_873)" stroke-width="0.15"/>
</g>
<path id="Vector_27" d="M16.8645 18.349C16.0995 18.349 15.381 18.169 14.778 17.854C14.571 17.749 14.349 17.9815 14.478 18.169C14.9835 18.934 15.8625 19.444 16.863 19.444C17.335 19.4456 17.8001 19.33 18.2164 19.1074C18.6326 18.8849 18.9871 18.5624 19.248 18.169C19.3785 17.974 19.158 17.749 18.951 17.854C18.3055 18.1847 17.5897 18.3546 16.8645 18.349Z" fill="url(#paint24_radial_1162_873)"/>
<g id="Group_6" filter="url(#filter4_ii_1162_873)">
<path id="Vector_28" d="M24.177 3.98054C24.9525 4.24754 25.647 4.78904 26.0865 5.56454C26.79 6.80054 26.6865 8.27954 25.926 9.37004C25.6622 9.75809 25.5206 10.2163 25.5195 10.6855V12.475C25.2162 12.2722 24.8739 12.1348 24.5145 12.0715L24.633 9.65204C24.6271 9.09537 24.4088 8.56197 24.0226 8.161C23.6364 7.76003 23.1116 7.52179 22.5555 7.49504H20.445C19.739 7.49384 19.0484 7.28786 18.4571 6.90208C17.8658 6.51629 17.3991 5.96726 17.1135 5.32154C17.0395 5.13599 16.9117 4.97683 16.7465 4.86455C16.5813 4.75227 16.3863 4.69201 16.1865 4.69154H14.2695C11.4885 4.69154 9.23701 6.97004 9.23701 9.78104L9.28201 12.097C8.89509 12.1458 8.52427 12.2817 8.19751 12.4945V10.6855C8.19751 10.2175 8.05351 9.75704 7.79101 9.37004C7.42593 8.83262 7.21309 8.20641 7.17506 7.55782C7.13703 6.90924 7.27523 6.26245 7.57501 5.68604C7.98838 4.8927 8.68746 4.28583 9.53101 3.98804C10.3954 3.68368 11.1307 3.09443 11.616 2.31704C12.24 1.32254 13.335 0.917542 14.589 0.917542C15.0765 0.917542 15.54 1.02254 15.9705 1.20104C16.5465 1.45154 17.193 1.45154 17.769 1.20104C18.192 1.02254 18.654 0.917542 19.143 0.917542C20.412 0.917542 21.5235 1.34654 22.1385 2.36504C22.6061 3.12658 23.329 3.69867 24.177 3.98054Z" fill="url(#paint25_linear_1162_873)"/>
<path id="Vector_29" d="M24.177 3.98054C24.9525 4.24754 25.647 4.78904 26.0865 5.56454C26.79 6.80054 26.6865 8.27954 25.926 9.37004C25.6622 9.75809 25.5206 10.2163 25.5195 10.6855V12.475C25.2162 12.2722 24.8739 12.1348 24.5145 12.0715L24.633 9.65204C24.6271 9.09537 24.4088 8.56197 24.0226 8.161C23.6364 7.76003 23.1116 7.52179 22.5555 7.49504H20.445C19.739 7.49384 19.0484 7.28786 18.4571 6.90208C17.8658 6.51629 17.3991 5.96726 17.1135 5.32154C17.0395 5.13599 16.9117 4.97683 16.7465 4.86455C16.5813 4.75227 16.3863 4.69201 16.1865 4.69154H14.2695C11.4885 4.69154 9.23701 6.97004 9.23701 9.78104L9.28201 12.097C8.89509 12.1458 8.52427 12.2817 8.19751 12.4945V10.6855C8.19751 10.2175 8.05351 9.75704 7.79101 9.37004C7.42593 8.83262 7.21309 8.20641 7.17506 7.55782C7.13703 6.90924 7.27523 6.26245 7.57501 5.68604C7.98838 4.8927 8.68746 4.28583 9.53101 3.98804C10.3954 3.68368 11.1307 3.09443 11.616 2.31704C12.24 1.32254 13.335 0.917542 14.589 0.917542C15.0765 0.917542 15.54 1.02254 15.9705 1.20104C16.5465 1.45154 17.193 1.45154 17.769 1.20104C18.192 1.02254 18.654 0.917542 19.143 0.917542C20.412 0.917542 21.5235 1.34654 22.1385 2.36504C22.6061 3.12658 23.329 3.69867 24.177 3.98054Z" fill="url(#paint26_radial_1162_873)"/>
<path id="Vector_30" d="M24.177 3.98054C24.9525 4.24754 25.647 4.78904 26.0865 5.56454C26.79 6.80054 26.6865 8.27954 25.926 9.37004C25.6622 9.75809 25.5206 10.2163 25.5195 10.6855V12.475C25.2162 12.2722 24.8739 12.1348 24.5145 12.0715L24.633 9.65204C24.6271 9.09537 24.4088 8.56197 24.0226 8.161C23.6364 7.76003 23.1116 7.52179 22.5555 7.49504H20.445C19.739 7.49384 19.0484 7.28786 18.4571 6.90208C17.8658 6.51629 17.3991 5.96726 17.1135 5.32154C17.0395 5.13599 16.9117 4.97683 16.7465 4.86455C16.5813 4.75227 16.3863 4.69201 16.1865 4.69154H14.2695C11.4885 4.69154 9.23701 6.97004 9.23701 9.78104L9.28201 12.097C8.89509 12.1458 8.52427 12.2817 8.19751 12.4945V10.6855C8.19751 10.2175 8.05351 9.75704 7.79101 9.37004C7.42593 8.83262 7.21309 8.20641 7.17506 7.55782C7.13703 6.90924 7.27523 6.26245 7.57501 5.68604C7.98838 4.8927 8.68746 4.28583 9.53101 3.98804C10.3954 3.68368 11.1307 3.09443 11.616 2.31704C12.24 1.32254 13.335 0.917542 14.589 0.917542C15.0765 0.917542 15.54 1.02254 15.9705 1.20104C16.5465 1.45154 17.193 1.45154 17.769 1.20104C18.192 1.02254 18.654 0.917542 19.143 0.917542C20.412 0.917542 21.5235 1.34654 22.1385 2.36504C22.6061 3.12658 23.329 3.69867 24.177 3.98054Z" fill="url(#paint27_radial_1162_873)"/>
<path id="Vector_31" d="M24.177 3.98054C24.9525 4.24754 25.647 4.78904 26.0865 5.56454C26.79 6.80054 26.6865 8.27954 25.926 9.37004C25.6622 9.75809 25.5206 10.2163 25.5195 10.6855V12.475C25.2162 12.2722 24.8739 12.1348 24.5145 12.0715L24.633 9.65204C24.6271 9.09537 24.4088 8.56197 24.0226 8.161C23.6364 7.76003 23.1116 7.52179 22.5555 7.49504H20.445C19.739 7.49384 19.0484 7.28786 18.4571 6.90208C17.8658 6.51629 17.3991 5.96726 17.1135 5.32154C17.0395 5.13599 16.9117 4.97683 16.7465 4.86455C16.5813 4.75227 16.3863 4.69201 16.1865 4.69154H14.2695C11.4885 4.69154 9.23701 6.97004 9.23701 9.78104L9.28201 12.097C8.89509 12.1458 8.52427 12.2817 8.19751 12.4945V10.6855C8.19751 10.2175 8.05351 9.75704 7.79101 9.37004C7.42593 8.83262 7.21309 8.20641 7.17506 7.55782C7.13703 6.90924 7.27523 6.26245 7.57501 5.68604C7.98838 4.8927 8.68746 4.28583 9.53101 3.98804C10.3954 3.68368 11.1307 3.09443 11.616 2.31704C12.24 1.32254 13.335 0.917542 14.589 0.917542C15.0765 0.917542 15.54 1.02254 15.9705 1.20104C16.5465 1.45154 17.193 1.45154 17.769 1.20104C18.192 1.02254 18.654 0.917542 19.143 0.917542C20.412 0.917542 21.5235 1.34654 22.1385 2.36504C22.6061 3.12658 23.329 3.69867 24.177 3.98054Z" fill="url(#paint28_radial_1162_873)"/>
<path id="Vector_32" d="M24.177 3.98054C24.9525 4.24754 25.647 4.78904 26.0865 5.56454C26.79 6.80054 26.6865 8.27954 25.926 9.37004C25.6622 9.75809 25.5206 10.2163 25.5195 10.6855V12.475C25.2162 12.2722 24.8739 12.1348 24.5145 12.0715L24.633 9.65204C24.6271 9.09537 24.4088 8.56197 24.0226 8.161C23.6364 7.76003 23.1116 7.52179 22.5555 7.49504H20.445C19.739 7.49384 19.0484 7.28786 18.4571 6.90208C17.8658 6.51629 17.3991 5.96726 17.1135 5.32154C17.0395 5.13599 16.9117 4.97683 16.7465 4.86455C16.5813 4.75227 16.3863 4.69201 16.1865 4.69154H14.2695C11.4885 4.69154 9.23701 6.97004 9.23701 9.78104L9.28201 12.097C8.89509 12.1458 8.52427 12.2817 8.19751 12.4945V10.6855C8.19751 10.2175 8.05351 9.75704 7.79101 9.37004C7.42593 8.83262 7.21309 8.20641 7.17506 7.55782C7.13703 6.90924 7.27523 6.26245 7.57501 5.68604C7.98838 4.8927 8.68746 4.28583 9.53101 3.98804C10.3954 3.68368 11.1307 3.09443 11.616 2.31704C12.24 1.32254 13.335 0.917542 14.589 0.917542C15.0765 0.917542 15.54 1.02254 15.9705 1.20104C16.5465 1.45154 17.193 1.45154 17.769 1.20104C18.192 1.02254 18.654 0.917542 19.143 0.917542C20.412 0.917542 21.5235 1.34654 22.1385 2.36504C22.6061 3.12658 23.329 3.69867 24.177 3.98054Z" fill="url(#paint29_radial_1162_873)"/>
</g>
<g id="Group_7" filter="url(#filter5_i_1162_873)">
<path id="Vector_33" d="M22.485 9.49903C22.1893 9.21957 21.836 9.00813 21.45 8.87953C20.9925 8.73403 20.4195 8.69653 19.6245 8.79253C19.57 8.79923 19.5174 8.81659 19.4697 8.84362C19.4219 8.87065 19.3799 8.90682 19.3462 8.95007C19.3124 8.99332 19.2875 9.0428 19.2728 9.09568C19.2582 9.14856 19.2541 9.20381 19.2608 9.25828C19.2675 9.31274 19.2848 9.36536 19.3118 9.41311C19.3389 9.46087 19.375 9.50284 19.4183 9.53661C19.4615 9.57039 19.511 9.59532 19.5639 9.60997C19.6168 9.62463 19.672 9.62873 19.7265 9.62203C20.451 9.53203 20.895 9.58003 21.1995 9.67603C21.4995 9.76903 21.7005 9.92203 21.9375 10.1275C22.021 10.2003 22.1301 10.237 22.2406 10.2294C22.3512 10.2218 22.4542 10.1706 22.527 10.087C22.5998 10.0035 22.6364 9.89444 22.6288 9.78389C22.6212 9.67334 22.57 9.57033 22.4865 9.49753" fill="#C05029"/>
</g>
<g id="Group_8" filter="url(#filter6_i_1162_873)">
<path id="Vector_34" d="M11.727 9.33404C12.5173 8.87195 13.4375 8.68222 14.346 8.79404C14.4558 8.80757 14.5558 8.86416 14.6238 8.95136C14.6919 9.03857 14.7226 9.14924 14.709 9.25904C14.6955 9.36884 14.6389 9.46877 14.5517 9.53685C14.4645 9.60492 14.3538 9.63557 14.244 9.62204C13.5199 9.53319 12.7865 9.68386 12.156 10.051C12.1088 10.0792 12.0628 10.1092 12.018 10.141L12.0135 10.144C11.9255 10.203 11.8183 10.2264 11.7137 10.2095C11.6091 10.1925 11.5148 10.1365 11.4498 10.0527C11.3849 9.96893 11.3542 9.86364 11.3639 9.75809C11.3736 9.65254 11.4229 9.5546 11.502 9.48404L11.727 9.33404Z" fill="#C05029"/>
</g>
<g id="Group_9" filter="url(#filter7_f_1162_873)">
<path id="Vector_35" d="M17.214 5.52701C17.179 5.45951 17.146 5.39098 17.115 5.32151C17.0411 5.13596 16.9132 4.9768 16.748 4.86452C16.5828 4.75224 16.3878 4.69199 16.188 4.69151H14.271C11.49 4.69151 9.23853 6.97001 9.23853 9.78101V10.195C8.72553 9.80501 8.08203 8.98451 8.08203 7.65401C8.08203 6.03851 9.25953 5.22401 10.0095 4.70201C10.2225 4.55501 10.3995 4.43201 10.5075 4.32101C10.5579 4.26889 10.6079 4.21638 10.6575 4.16351C11.184 3.60401 12.123 2.60951 13.761 2.17451C14.5043 1.98649 15.2702 1.90318 16.0365 1.92701C16.746 1.94351 17.2455 2.55701 17.2455 3.26501V5.50751L17.214 5.52701Z" fill="url(#paint30_radial_1162_873)"/>
<path id="Vector_36" d="M17.214 5.52701C17.179 5.45951 17.146 5.39098 17.115 5.32151C17.0411 5.13596 16.9132 4.9768 16.748 4.86452C16.5828 4.75224 16.3878 4.69199 16.188 4.69151H14.271C11.49 4.69151 9.23853 6.97001 9.23853 9.78101V10.195C8.72553 9.80501 8.08203 8.98451 8.08203 7.65401C8.08203 6.03851 9.25953 5.22401 10.0095 4.70201C10.2225 4.55501 10.3995 4.43201 10.5075 4.32101C10.5579 4.26889 10.6079 4.21638 10.6575 4.16351C11.184 3.60401 12.123 2.60951 13.761 2.17451C14.5043 1.98649 15.2702 1.90318 16.0365 1.92701C16.746 1.94351 17.2455 2.55701 17.2455 3.26501V5.50751L17.214 5.52701Z" fill="url(#paint31_radial_1162_873)"/>
</g>
<g id="Group_10" filter="url(#filter8_f_1162_873)">
<path id="Vector_37" d="M24.7155 10.6075L24.672 9.65652C24.657 8.50602 23.706 7.55652 22.5555 7.50852H20.445C19.7907 7.50847 19.1484 7.33244 18.5855 6.99886C18.0226 6.66528 17.5598 6.18644 17.2455 5.61252C17.2455 5.61252 17.1555 5.40252 17.0625 5.04702C16.68 3.59202 18.0705 2.47752 19.548 2.76402C21.018 3.04902 22.692 3.54252 23.9295 4.34952C26.5575 6.06402 26.0985 9.15252 24.7155 10.6075Z" fill="url(#paint32_radial_1162_873)"/>
<path id="Vector_38" d="M24.7155 10.6075L24.672 9.65652C24.657 8.50602 23.706 7.55652 22.5555 7.50852H20.445C19.7907 7.50847 19.1484 7.33244 18.5855 6.99886C18.0226 6.66528 17.5598 6.18644 17.2455 5.61252C17.2455 5.61252 17.1555 5.40252 17.0625 5.04702C16.68 3.59202 18.0705 2.47752 19.548 2.76402C21.018 3.04902 22.692 3.54252 23.9295 4.34952C26.5575 6.06402 26.0985 9.15252 24.7155 10.6075Z" fill="url(#paint33_radial_1162_873)"/>
<path id="Vector_39" d="M24.7155 10.6075L24.672 9.65652C24.657 8.50602 23.706 7.55652 22.5555 7.50852H20.445C19.7907 7.50847 19.1484 7.33244 18.5855 6.99886C18.0226 6.66528 17.5598 6.18644 17.2455 5.61252C17.2455 5.61252 17.1555 5.40252 17.0625 5.04702C16.68 3.59202 18.0705 2.47752 19.548 2.76402C21.018 3.04902 22.692 3.54252 23.9295 4.34952C26.5575 6.06402 26.0985 9.15252 24.7155 10.6075Z" fill="url(#paint34_radial_1162_873)"/>
<path id="Vector_40" d="M24.7155 10.6075L24.672 9.65652C24.657 8.50602 23.706 7.55652 22.5555 7.50852H20.445C19.7907 7.50847 19.1484 7.33244 18.5855 6.99886C18.0226 6.66528 17.5598 6.18644 17.2455 5.61252C17.2455 5.61252 17.1555 5.40252 17.0625 5.04702C16.68 3.59202 18.0705 2.47752 19.548 2.76402C21.018 3.04902 22.692 3.54252 23.9295 4.34952C26.5575 6.06402 26.0985 9.15252 24.7155 10.6075Z" fill="url(#paint35_radial_1162_873)"/>
<path id="Vector_41" d="M24.7155 10.6075L24.672 9.65652C24.657 8.50602 23.706 7.55652 22.5555 7.50852H20.445C19.7907 7.50847 19.1484 7.33244 18.5855 6.99886C18.0226 6.66528 17.5598 6.18644 17.2455 5.61252C17.2455 5.61252 17.1555 5.40252 17.0625 5.04702C16.68 3.59202 18.0705 2.47752 19.548 2.76402C21.018 3.04902 22.692 3.54252 23.9295 4.34952C26.5575 6.06402 26.0985 9.15252 24.7155 10.6075Z" fill="url(#paint36_radial_1162_873)"/>
</g>
<path id="Vector_42" d="M20.4645 11.479C21.4485 11.479 22.2795 12.157 22.5045 13.0735C22.5198 13.1345 22.521 13.1982 22.5079 13.2597C22.4949 13.3212 22.4679 13.3789 22.4291 13.4284C22.3903 13.4779 22.3407 13.5179 22.2841 13.5453C22.2275 13.5727 22.1654 13.5868 22.1025 13.5865H18.7425C18.6915 13.5867 18.6412 13.5756 18.595 13.5541C18.5488 13.5326 18.5079 13.5012 18.4753 13.4621C18.4426 13.423 18.419 13.3772 18.406 13.3279C18.3931 13.2786 18.3912 13.2271 18.4005 13.177C18.4946 12.6987 18.7519 12.268 19.1283 11.9583C19.5048 11.6486 19.977 11.4792 20.4645 11.479Z" fill="white"/>
<path id="Vector_43" d="M20.154 11.8885C20.3605 11.8889 20.5642 11.9368 20.7492 12.0285C20.9342 12.1203 21.0956 12.2535 21.2208 12.4177C21.346 12.5819 21.4317 12.7728 21.4711 12.9755C21.5106 13.1782 21.5029 13.3873 21.4485 13.5865H18.8535C18.8002 13.3869 18.7935 13.1777 18.8338 12.9751C18.8742 12.7724 18.9605 12.5817 19.0861 12.4177C19.2117 12.2536 19.3733 12.1206 19.5585 12.0289C19.7436 11.9372 19.9474 11.8891 20.154 11.8885Z" fill="url(#paint37_radial_1162_873)"/>
<path id="Vector_44" d="M19.3845 13.231C19.3841 13.1299 19.4038 13.0298 19.4423 12.9363C19.4809 12.8429 19.5375 12.758 19.6091 12.6866C19.6807 12.6151 19.7657 12.5586 19.8592 12.5203C19.9527 12.4819 20.0529 12.4624 20.154 12.463C20.2863 12.462 20.4167 12.4953 20.5322 12.5597C20.6478 12.6241 20.7448 12.7174 20.8135 12.8304C20.8823 12.9435 20.9206 13.0724 20.9246 13.2047C20.9286 13.337 20.8983 13.468 20.8365 13.585H19.476C19.4145 13.4773 19.3829 13.3551 19.3845 13.231Z" fill="black"/>
<g id="Group_11" filter="url(#filter9_f_1162_873)">
<path id="Vector_45" d="M20.055 12.172C20.1495 12.301 19.95 12.457 19.722 12.6265C19.4955 12.796 19.326 12.916 19.23 12.787C19.1355 12.6595 19.242 12.418 19.47 12.2485C19.695 12.079 19.9575 12.0445 20.055 12.1735" fill="#C7A7A3"/>
<path id="Vector_46" d="M20.055 12.172C20.1495 12.301 19.95 12.457 19.722 12.6265C19.4955 12.796 19.326 12.916 19.23 12.787C19.1355 12.6595 19.242 12.418 19.47 12.2485C19.695 12.079 19.9575 12.0445 20.055 12.1735" fill="url(#paint38_radial_1162_873)"/>
</g>
<g id="Group_12" filter="url(#filter10_f_1162_873)">
<path id="Vector_47" d="M21.3495 13.054C21.3098 12.7912 21.188 12.5476 21.0015 12.358L20.6115 12.787L20.787 13.129L21.3495 13.054Z" fill="url(#paint39_linear_1162_873)"/>
</g>
<path id="Vector_48" d="M13.263 11.479C12.279 11.479 11.448 12.157 11.223 13.0735C11.2077 13.1345 11.2065 13.1982 11.2196 13.2597C11.2326 13.3212 11.2596 13.3789 11.2984 13.4284C11.3372 13.4779 11.3868 13.5179 11.4434 13.5453C11.5 13.5727 11.5621 13.5868 11.625 13.5865H14.985C15.1995 13.5865 15.369 13.3915 15.327 13.177C15.2318 12.6993 14.9742 12.2691 14.598 11.9597C14.2218 11.6502 13.7501 11.4803 13.263 11.479Z" fill="white"/>
<path id="Vector_49" d="M13.575 11.887C13.3684 11.8871 13.1645 11.9348 12.9793 12.0265C12.7941 12.1182 12.6326 12.2513 12.5072 12.4156C12.3818 12.5799 12.296 12.7708 12.2564 12.9736C12.2169 13.1765 12.2246 13.3857 12.279 13.585H14.874C14.9058 13.4697 14.9224 13.3507 14.9235 13.231C14.9212 12.8743 14.778 12.5329 14.5251 12.2812C14.2723 12.0295 13.9303 11.8878 13.5735 11.887" fill="url(#paint40_radial_1162_873)"/>
<path id="Vector_50" d="M14.343 13.231C14.3434 13.13 14.3238 13.0298 14.2852 12.9363C14.2467 12.8429 14.19 12.758 14.1184 12.6866C14.0469 12.6152 13.9619 12.5586 13.8683 12.5203C13.7748 12.4819 13.6746 12.4625 13.5735 12.463C13.4411 12.4618 13.3106 12.4949 13.1948 12.5592C13.079 12.6235 12.9818 12.7167 12.9129 12.8298C12.844 12.9429 12.8056 13.072 12.8015 13.2043C12.7974 13.3367 12.8277 13.4679 12.8895 13.585H14.2515C14.3097 13.4761 14.3406 13.3546 14.3415 13.231" fill="black"/>
<g id="Group_13" filter="url(#filter11_f_1162_873)">
<path id="Vector_51" d="M14.8005 13.072C14.8005 12.6385 14.448 12.349 14.352 12.262L13.92 12.682L14.1855 13.225L14.8005 13.072Z" fill="url(#paint41_linear_1162_873)"/>
</g>
<g id="Group_14" filter="url(#filter12_f_1162_873)">
<path id="Vector_52" d="M13.3076 12.7255C13.5938 12.5738 13.7636 12.3334 13.6868 12.1885C13.61 12.0435 13.3157 12.049 13.0295 12.2006C12.7433 12.3522 12.5735 12.5927 12.6503 12.7376C12.7271 12.8825 13.0213 12.8771 13.3076 12.7255Z" fill="#C7A7A3" fill-opacity="0.9"/>
<path id="Vector_53" d="M13.3076 12.7255C13.5938 12.5738 13.7636 12.3334 13.6868 12.1885C13.61 12.0435 13.3157 12.049 13.0295 12.2006C12.7433 12.3522 12.5735 12.5927 12.6503 12.7376C12.7271 12.8825 13.0213 12.8771 13.3076 12.7255Z" fill="url(#paint42_radial_1162_873)"/>
</g>
<path id="Vector_54" d="M24.279 16.006C24.378 14.404 24.474 12.802 24.5565 11.2C25.1406 11.304 25.6662 11.6186 26.0339 12.0841C26.4016 12.5497 26.5858 13.1339 26.5516 13.7262C26.5174 14.3185 26.2672 14.8777 25.8484 15.2978C25.4295 15.718 24.8712 15.97 24.279 16.006Z" fill="url(#paint43_linear_1162_873)"/>
<path id="Vector_55" d="M24.279 16.006C24.378 14.404 24.474 12.802 24.5565 11.2C25.1406 11.304 25.6662 11.6186 26.0339 12.0841C26.4016 12.5497 26.5858 13.1339 26.5516 13.7262C26.5174 14.3185 26.2672 14.8777 25.8484 15.2978C25.4295 15.718 24.8712 15.97 24.279 16.006Z" fill="url(#paint44_radial_1162_873)"/>
<path id="Vector_56" d="M24.279 16.006C24.378 14.404 24.474 12.802 24.5565 11.2C25.1406 11.304 25.6662 11.6186 26.0339 12.0841C26.4016 12.5497 26.5858 13.1339 26.5516 13.7262C26.5174 14.3185 26.2672 14.8777 25.8484 15.2978C25.4295 15.718 24.8712 15.97 24.279 16.006Z" fill="url(#paint45_radial_1162_873)"/>
<path id="Vector_57" d="M9.25203 11.188C8.65696 11.2736 8.11491 11.5772 7.73112 12.0399C7.34733 12.5027 7.1492 13.0915 7.17518 13.6921C7.20116 14.2928 7.44942 14.8623 7.87173 15.2902C8.29405 15.718 8.8603 15.9737 9.46053 16.0075C9.35758 14.4021 9.28756 12.7948 9.25053 11.1865" fill="url(#paint46_linear_1162_873)"/>
<path id="Vector_58" d="M9.25203 11.188C8.65696 11.2736 8.11491 11.5772 7.73112 12.0399C7.34733 12.5027 7.1492 13.0915 7.17518 13.6921C7.20116 14.2928 7.44942 14.8623 7.87173 15.2902C8.29405 15.718 8.8603 15.9737 9.46053 16.0075C9.35758 14.4021 9.28756 12.7948 9.25053 11.1865" fill="url(#paint47_radial_1162_873)"/>
<g id="Group_15" filter="url(#filter13_f_1162_873)">
<path id="Vector_59" d="M9.276 12.1825C8.94828 12.2584 8.65749 12.4467 8.45409 12.7147C8.2507 12.9826 8.14753 13.3133 8.1625 13.6494C8.17747 13.9855 8.30962 14.3057 8.53604 14.5545C8.76245 14.8033 9.06882 14.965 9.40199 15.0115C9.34862 14.069 9.30662 13.126 9.276 12.1825Z" fill="#DD8224"/>
</g>
<g id="Group_16" filter="url(#filter14_f_1162_873)">
<path id="Vector_60" d="M24.339 15.025C24.3975 14.0695 24.453 13.114 24.504 12.1585C24.8613 12.2096 25.1863 12.3929 25.4148 12.6722C25.6434 12.9516 25.7587 13.3065 25.7379 13.6668C25.7172 14.0271 25.5619 14.3665 25.3028 14.6177C25.0437 14.869 24.6998 15.0138 24.339 15.0235" fill="#FFC837"/>
</g>
<g id="Group_17" filter="url(#filter15_f_1162_873)">
<path id="Vector_61" d="M11.784 9.75554C12.171 9.47804 13.134 8.98904 14.2755 9.18104" stroke="#C96953" stroke-width="0.25" stroke-linecap="round"/>
</g>
<g id="Group_18" filter="url(#filter16_f_1162_873)">
<path id="Vector_62" d="M22.23 9.6865C21.843 9.409 20.8785 8.9215 19.737 9.112" stroke="#C96953" stroke-width="0.25" stroke-linecap="round"/>
</g>
<path id="Vector_63" d="M30.0345 15.3295V2.03503H28.8345V15.3295H30.0345Z" fill="url(#paint48_linear_1162_873)"/>
<path id="Vector_64" d="M30.0345 15.3295V2.03503H28.8345V15.3295H30.0345Z" fill="url(#paint49_radial_1162_873)"/>
<path id="Vector_65" d="M7.58555 5.69954L9.46505 2.71004L24.09 2.54504L26.13 5.63954C19.134 8.05454 10.719 6.79904 7.58405 5.69804" fill="url(#paint50_radial_1162_873)"/>
<path id="Vector_66" d="M28.8495 3.23502H4.89452C4.23452 3.23502 3.69452 2.69502 3.69452 2.03502C3.69452 1.37502 4.23452 0.835022 4.89452 0.835022H28.8345C29.4945 0.835022 30.0345 1.37502 30.0345 2.03502C30.0495 2.69502 29.5095 3.23502 28.8495 3.23502Z" fill="url(#paint51_linear_1162_873)"/>
<path id="Vector_67" d="M28.8495 3.23502H4.89452C4.23452 3.23502 3.69452 2.69502 3.69452 2.03502C3.69452 1.37502 4.23452 0.835022 4.89452 0.835022H28.8345C29.4945 0.835022 30.0345 1.37502 30.0345 2.03502C30.0495 2.69502 29.5095 3.23502 28.8495 3.23502Z" fill="url(#paint52_radial_1162_873)"/>
<path id="Vector_68" d="M28.8495 3.23502H4.89452C4.23452 3.23502 3.69452 2.69502 3.69452 2.03502C3.69452 1.37502 4.23452 0.835022 4.89452 0.835022H28.8345C29.4945 0.835022 30.0345 1.37502 30.0345 2.03502C30.0495 2.69502 29.5095 3.23502 28.8495 3.23502Z" fill="url(#paint53_radial_1162_873)"/>
<path id="Vector_69" d="M28.8345 15.295C28.5893 15.4284 28.3956 15.6397 28.2839 15.8955C28.1722 16.1513 28.149 16.437 28.2178 16.7075C28.2866 16.9779 28.4436 17.2178 28.6639 17.3891C28.8843 17.5604 29.1554 17.6534 29.4345 17.6534C29.7136 17.6534 29.9848 17.5604 30.2051 17.3891C30.4255 17.2178 30.5824 16.9779 30.6513 16.7075C30.7201 16.437 30.6968 16.1513 30.5851 15.8955C30.4734 15.6397 30.2797 15.4284 30.0345 15.295H28.8345Z" fill="url(#paint54_radial_1162_873)"/>
<path id="Vector_70" d="M28.8345 15.295C28.5893 15.4284 28.3956 15.6397 28.2839 15.8955C28.1722 16.1513 28.149 16.437 28.2178 16.7075C28.2866 16.9779 28.4436 17.2178 28.6639 17.3891C28.8843 17.5604 29.1554 17.6534 29.4345 17.6534C29.7136 17.6534 29.9848 17.5604 30.2051 17.3891C30.4255 17.2178 30.5824 16.9779 30.6513 16.7075C30.7201 16.437 30.6968 16.1513 30.5851 15.8955C30.4734 15.6397 30.2797 15.4284 30.0345 15.295H28.8345Z" fill="url(#paint55_radial_1162_873)"/>
<g id="Group_19" filter="url(#filter17_f_1162_873)">
<path id="Vector_71" d="M29.589 3.39105V15.0431" stroke="url(#paint56_linear_1162_873)" stroke-width="0.15"/>
</g>
<path id="Vector_72" d="M28.155 18.235L27.3795 21.595C27.3568 21.6947 27.357 21.7982 27.3801 21.8977C27.4032 21.9972 27.4486 22.0902 27.5129 22.1697C27.5771 22.2491 27.6586 22.3129 27.7511 22.3563C27.8437 22.3997 27.9448 22.4215 28.047 22.42H30.8415C30.9429 22.4184 31.0426 22.394 31.1333 22.3486C31.224 22.3032 31.3032 22.2379 31.3652 22.1576C31.4272 22.0773 31.4702 21.9841 31.4912 21.8849C31.5123 21.7857 31.5106 21.683 31.4865 21.5845L30.6735 18.226C30.6336 18.0632 30.5402 17.9184 30.4084 17.8148C30.2765 17.7112 30.1137 17.6548 29.946 17.6545H28.8855C28.7156 17.6543 28.5507 17.7118 28.4177 17.8175C28.2847 17.9232 28.1916 18.071 28.1535 18.2365" fill="url(#paint57_linear_1162_873)"/>
<path id="Vector_73" d="M28.155 18.235L27.3795 21.595C27.3568 21.6947 27.357 21.7982 27.3801 21.8977C27.4032 21.9972 27.4486 22.0902 27.5129 22.1697C27.5771 22.2491 27.6586 22.3129 27.7511 22.3563C27.8437 22.3997 27.9448 22.4215 28.047 22.42H30.8415C30.9429 22.4184 31.0426 22.394 31.1333 22.3486C31.224 22.3032 31.3032 22.2379 31.3652 22.1576C31.4272 22.0773 31.4702 21.9841 31.4912 21.8849C31.5123 21.7857 31.5106 21.683 31.4865 21.5845L30.6735 18.226C30.6336 18.0632 30.5402 17.9184 30.4084 17.8148C30.2765 17.7112 30.1137 17.6548 29.946 17.6545H28.8855C28.7156 17.6543 28.5507 17.7118 28.4177 17.8175C28.2847 17.9232 28.1916 18.071 28.1535 18.2365" fill="url(#paint58_radial_1162_873)"/>
<path id="Vector_74" d="M28.155 18.235L27.3795 21.595C27.3568 21.6947 27.357 21.7982 27.3801 21.8977C27.4032 21.9972 27.4486 22.0902 27.5129 22.1697C27.5771 22.2491 27.6586 22.3129 27.7511 22.3563C27.8437 22.3997 27.9448 22.4215 28.047 22.42H30.8415C30.9429 22.4184 31.0426 22.394 31.1333 22.3486C31.224 22.3032 31.3032 22.2379 31.3652 22.1576C31.4272 22.0773 31.4702 21.9841 31.4912 21.8849C31.5123 21.7857 31.5106 21.683 31.4865 21.5845L30.6735 18.226C30.6336 18.0632 30.5402 17.9184 30.4084 17.8148C30.2765 17.7112 30.1137 17.6548 29.946 17.6545H28.8855C28.7156 17.6543 28.5507 17.7118 28.4177 17.8175C28.2847 17.9232 28.1916 18.071 28.1535 18.2365" fill="url(#paint59_radial_1162_873)"/>
<path id="Vector_75" d="M28.155 18.235L27.3795 21.595C27.3568 21.6947 27.357 21.7982 27.3801 21.8977C27.4032 21.9972 27.4486 22.0902 27.5129 22.1697C27.5771 22.2491 27.6586 22.3129 27.7511 22.3563C27.8437 22.3997 27.9448 22.4215 28.047 22.42H30.8415C30.9429 22.4184 31.0426 22.394 31.1333 22.3486C31.224 22.3032 31.3032 22.2379 31.3652 22.1576C31.4272 22.0773 31.4702 21.9841 31.4912 21.8849C31.5123 21.7857 31.5106 21.683 31.4865 21.5845L30.6735 18.226C30.6336 18.0632 30.5402 17.9184 30.4084 17.8148C30.2765 17.7112 30.1137 17.6548 29.946 17.6545H28.8855C28.7156 17.6543 28.5507 17.7118 28.4177 17.8175C28.2847 17.9232 28.1916 18.071 28.1535 18.2365" fill="url(#paint60_radial_1162_873)"/>
<path id="Vector_76" d="M6.09002 42.82V25.1425C4.31399 26.6897 2.89074 28.6 1.91645 30.7445C0.942166 32.889 0.439533 35.2176 0.442518 37.573V42.823L6.09002 42.82Z" fill="url(#paint61_radial_1162_873)"/>
<path id="Vector_77" d="M6.09002 42.82V25.1425C4.31399 26.6897 2.89074 28.6 1.91645 30.7445C0.942166 32.889 0.439533 35.2176 0.442518 37.573V42.823L6.09002 42.82Z" fill="url(#paint62_radial_1162_873)"/>
<path id="Vector_78" d="M6.09002 42.82V25.1425C4.31399 26.6897 2.89074 28.6 1.91645 30.7445C0.942166 32.889 0.439533 35.2176 0.442518 37.573V42.823L6.09002 42.82Z" fill="url(#paint63_linear_1162_873)"/>
<path id="Vector_79" d="M27.78 42.82V25.1425C29.5561 26.6897 30.9793 28.6 31.9536 30.7445C32.9279 32.889 33.4305 35.2176 33.4275 37.573V42.823L27.78 42.82Z" fill="url(#paint64_radial_1162_873)"/>
<path id="Vector_80" d="M27.78 42.82V25.1425C29.5561 26.6897 30.9793 28.6 31.9536 30.7445C32.9279 32.889 33.4305 35.2176 33.4275 37.573V42.823L27.78 42.82Z" fill="url(#paint65_radial_1162_873)"/>
<g id="Group_20" filter="url(#filter18_f_1162_873)">
<path id="Vector_81" d="M10.437 33.4855C10.437 33.2035 10.6695 32.9755 10.956 32.9755C11.241 32.9755 11.4735 33.2035 11.4735 33.4855V42.625H10.437V33.4855Z" fill="url(#paint66_linear_1162_873)"/>
<path id="Vector_82" d="M16.416 33.4855C16.416 33.2035 16.6485 32.9755 16.935 32.9755C17.22 32.9755 17.454 33.2035 17.454 33.4855V42.625H16.416V33.4855Z" fill="url(#paint67_linear_1162_873)"/>
<path id="Vector_83" d="M22.395 33.4855C22.395 33.2035 22.6275 32.9755 22.914 32.9755C23.2005 32.9755 23.433 33.2035 23.433 33.4855V42.625H22.3965L22.395 33.4855Z" fill="url(#paint68_linear_1162_873)"/>
</g>
</g>
<defs>
<filter id="filter0_ii_1162_873" x="9.23853" y="4.69" width="15.8945" height="18.791" filterUnits="userSpaceOnUse" color-interpolation-filters="sRGB">
<feFlood flood-opacity="0" result="BackgroundImageFix"/>
<feBlend mode="normal" in="SourceGraphic" in2="BackgroundImageFix" result="shape"/>
<feColorMatrix in="SourceAlpha" type="matrix" values="0 0 0 0 0 0 0 0 0 0 0 0 0 0 0 0 0 0 127 0" result="hardAlpha"/>
<feOffset dx="0.5"/>
<feGaussianBlur stdDeviation="0.5"/>
<feComposite in2="hardAlpha" operator="arithmetic" k2="-1" k3="1"/>
<feColorMatrix type="matrix" values="0 0 0 0 0.823529 0 0 0 0 0.623529 0 0 0 0 0.313726 0 0 0 1 0"/>
<feBlend mode="normal" in2="shape" result="effect1_innerShadow_1162_873"/>
<feColorMatrix in="SourceAlpha" type="matrix" values="0 0 0 0 0 0 0 0 0 0 0 0 0 0 0 0 0 0 127 0" result="hardAlpha"/>
<feOffset dy="0.2"/>
<feGaussianBlur stdDeviation="0.375"/>
<feComposite in2="hardAlpha" operator="arithmetic" k2="-1" k3="1"/>
<feColorMatrix type="matrix" values="0 0 0 0 0.980392 0 0 0 0 0.54902 0 0 0 0 0.0941176 0 0 0 1 0"/>
<feBlend mode="normal" in2="effect1_innerShadow_1162_873" result="effect2_innerShadow_1162_873"/>
</filter>
<filter id="filter1_f_1162_873" x="14.1381" y="11.7443" width="4.82697" height="6.36877" filterUnits="userSpaceOnUse" color-interpolation-filters="sRGB">
<feFlood flood-opacity="0" result="BackgroundImageFix"/>
<feBlend mode="normal" in="SourceGraphic" in2="BackgroundImageFix" result="shape"/>
<feGaussianBlur stdDeviation="0.5" result="effect1_foregroundBlur_1162_873"/>
</filter>
<filter id="filter2_f_1162_873" x="15.3501" y="12.3499" width="3.02684" height="4.56761" filterUnits="userSpaceOnUse" color-interpolation-filters="sRGB">
<feFlood flood-opacity="0" result="BackgroundImageFix"/>
<feBlend mode="normal" in="SourceGraphic" in2="BackgroundImageFix" result="shape"/>
<feGaussianBlur stdDeviation="0.05" result="effect1_foregroundBlur_1162_873"/>
</filter>
<filter id="filter3_f_1162_873" x="14.1538" y="17.5412" width="5.42125" height="2.1903" filterUnits="userSpaceOnUse" color-interpolation-filters="sRGB">
<feFlood flood-opacity="0" result="BackgroundImageFix"/>
<feBlend mode="normal" in="SourceGraphic" in2="BackgroundImageFix" result="shape"/>
<feGaussianBlur stdDeviation="0.05" result="effect1_foregroundBlur_1162_873"/>
</filter>
<filter id="filter4_ii_1162_873" x="7.16888" y="0.417542" width="19.3908" height="12.077" filterUnits="userSpaceOnUse" color-interpolation-filters="sRGB">
<feFlood flood-opacity="0" result="BackgroundImageFix"/>
<feBlend mode="normal" in="SourceGraphic" in2="BackgroundImageFix" result="shape"/>
<feColorMatrix in="SourceAlpha" type="matrix" values="0 0 0 0 0 0 0 0 0 0 0 0 0 0 0 0 0 0 127 0" result="hardAlpha"/>
<feOffset dy="-0.5"/>
<feGaussianBlur stdDeviation="0.625"/>
<feComposite in2="hardAlpha" operator="arithmetic" k2="-1" k3="1"/>
<feColorMatrix type="matrix" values="0 0 0 0 0.945098 0 0 0 0 0.509804 0 0 0 0 0.0627451 0 0 0 1 0"/>
<feBlend mode="normal" in2="shape" result="effect1_innerShadow_1162_873"/>
<feColorMatrix in="SourceAlpha" type="matrix" values="0 0 0 0 0 0 0 0 0 0 0 0 0 0 0 0 0 0 127 0" result="hardAlpha"/>
<feOffset dy="-0.2"/>
<feGaussianBlur stdDeviation="0.2"/>
<feComposite in2="hardAlpha" operator="arithmetic" k2="-1" k3="1"/>
<feColorMatrix type="matrix" values="0 0 0 0 0.862745 0 0 0 0 0.486275 0 0 0 0 0.0470588 0 0 0 1 0"/>
<feBlend mode="normal" in2="effect1_innerShadow_1162_873" result="effect2_innerShadow_1162_873"/>
</filter>
<filter id="filter5_i_1162_873" x="19.2576" y="8.5395" width="3.47219" height="1.69084" filterUnits="userSpaceOnUse" color-interpolation-filters="sRGB">
<feFlood flood-opacity="0" result="BackgroundImageFix"/>
<feBlend mode="normal" in="SourceGraphic" in2="BackgroundImageFix" result="shape"/>
<feColorMatrix in="SourceAlpha" type="matrix" values="0 0 0 0 0 0 0 0 0 0 0 0 0 0 0 0 0 0 127 0" result="hardAlpha"/>
<feOffset dx="0.1" dy="-0.2"/>
<feGaussianBlur stdDeviation="0.125"/>
<feComposite in2="hardAlpha" operator="arithmetic" k2="-1" k3="1"/>
<feColorMatrix type="matrix" values="0 0 0 0 0.603922 0 0 0 0 0.243137 0 0 0 0 0.152941 0 0 0 1 0"/>
<feBlend mode="normal" in2="shape" result="effect1_innerShadow_1162_873"/>
</filter>
<filter id="filter6_i_1162_873" x="11.3621" y="8.56276" width="3.45004" height="1.65209" filterUnits="userSpaceOnUse" color-interpolation-filters="sRGB">
<feFlood flood-opacity="0" result="BackgroundImageFix"/>
<feBlend mode="normal" in="SourceGraphic" in2="BackgroundImageFix" result="shape"/>
<feColorMatrix in="SourceAlpha" type="matrix" values="0 0 0 0 0 0 0 0 0 0 0 0 0 0 0 0 0 0 127 0" result="hardAlpha"/>
<feOffset dx="0.1" dy="-0.2"/>
<feGaussianBlur stdDeviation="0.125"/>
<feComposite in2="hardAlpha" operator="arithmetic" k2="-1" k3="1"/>
<feColorMatrix type="matrix" values="0 0 0 0 0.603922 0 0 0 0 0.243137 0 0 0 0 0.152941 0 0 0 1 0"/>
<feBlend mode="normal" in2="shape" result="effect1_innerShadow_1162_873"/>
</filter>
<filter id="filter7_f_1162_873" x="7.83203" y="1.67303" width="9.66351" height="8.77197" filterUnits="userSpaceOnUse" color-interpolation-filters="sRGB">
<feFlood flood-opacity="0" result="BackgroundImageFix"/>
<feBlend mode="normal" in="SourceGraphic" in2="BackgroundImageFix" result="shape"/>
<feGaussianBlur stdDeviation="0.125" result="effect1_foregroundBlur_1162_873"/>
</filter>
<filter id="filter8_f_1162_873" x="16.7484" y="2.46887" width="9.33081" height="8.38867" filterUnits="userSpaceOnUse" color-interpolation-filters="sRGB">
<feFlood flood-opacity="0" result="BackgroundImageFix"/>
<feBlend mode="normal" in="SourceGraphic" in2="BackgroundImageFix" result="shape"/>
<feGaussianBlur stdDeviation="0.125" result="effect1_foregroundBlur_1162_873"/>
</filter>
<filter id="filter9_f_1162_873" x="19.0956" y="11.9953" width="1.08348" height="0.945972" filterUnits="userSpaceOnUse" color-interpolation-filters="sRGB">
<feFlood flood-opacity="0" result="BackgroundImageFix"/>
<feBlend mode="normal" in="SourceGraphic" in2="BackgroundImageFix" result="shape"/>
<feGaussianBlur stdDeviation="0.05" result="effect1_foregroundBlur_1162_873"/>
</filter>
<filter id="filter10_f_1162_873" x="20.4115" y="12.158" width="1.13798" height="1.171" filterUnits="userSpaceOnUse" color-interpolation-filters="sRGB">
<feFlood flood-opacity="0" result="BackgroundImageFix"/>
<feBlend mode="normal" in="SourceGraphic" in2="BackgroundImageFix" result="shape"/>
<feGaussianBlur stdDeviation="0.1" result="effect1_foregroundBlur_1162_873"/>
</filter>
<filter id="filter11_f_1162_873" x="13.72" y="12.062" width="1.28049" height="1.36301" filterUnits="userSpaceOnUse" color-interpolation-filters="sRGB">
<feFlood flood-opacity="0" result="BackgroundImageFix"/>
<feBlend mode="normal" in="SourceGraphic" in2="BackgroundImageFix" result="shape"/>
<feGaussianBlur stdDeviation="0.1" result="effect1_foregroundBlur_1162_873"/>
</filter>
<filter id="filter12_f_1162_873" x="12.5318" y="11.9832" width="1.27343" height="0.959644" filterUnits="userSpaceOnUse" color-interpolation-filters="sRGB">
<feFlood flood-opacity="0" result="BackgroundImageFix"/>
<feBlend mode="normal" in="SourceGraphic" in2="BackgroundImageFix" result="shape"/>
<feGaussianBlur stdDeviation="0.05" result="effect1_foregroundBlur_1162_873"/>
</filter>
<filter id="filter13_f_1162_873" x="7.91107" y="11.9325" width="1.74091" height="3.32898" filterUnits="userSpaceOnUse" color-interpolation-filters="sRGB">
<feFlood flood-opacity="0" result="BackgroundImageFix"/>
<feBlend mode="normal" in="SourceGraphic" in2="BackgroundImageFix" result="shape"/>
<feGaussianBlur stdDeviation="0.125" result="effect1_foregroundBlur_1162_873"/>
</filter>
<filter id="filter14_f_1162_873" x="24.089" y="11.9085" width="1.90131" height="3.36652" filterUnits="userSpaceOnUse" color-interpolation-filters="sRGB">
<feFlood flood-opacity="0" result="BackgroundImageFix"/>
<feBlend mode="normal" in="SourceGraphic" in2="BackgroundImageFix" result="shape"/>
<feGaussianBlur stdDeviation="0.125" result="effect1_foregroundBlur_1162_873"/>
</filter>
<filter id="filter15_f_1162_873" x="11.409" y="8.76245" width="3.24152" height="1.3681" filterUnits="userSpaceOnUse" color-interpolation-filters="sRGB">
<feFlood flood-opacity="0" result="BackgroundImageFix"/>
<feBlend mode="normal" in="SourceGraphic" in2="BackgroundImageFix" result="shape"/>
<feGaussianBlur stdDeviation="0.125" result="effect1_foregroundBlur_1162_873"/>
</filter>
<filter id="filter16_f_1162_873" x="19.362" y="8.69391" width="3.24298" height="1.36761" filterUnits="userSpaceOnUse" color-interpolation-filters="sRGB">
<feFlood flood-opacity="0" result="BackgroundImageFix"/>
<feBlend mode="normal" in="SourceGraphic" in2="BackgroundImageFix" result="shape"/>
<feGaussianBlur stdDeviation="0.125" result="effect1_foregroundBlur_1162_873"/>
</filter>
<filter id="filter17_f_1162_873" x="29.264" y="3.14105" width="0.650024" height="12.152" filterUnits="userSpaceOnUse" color-interpolation-filters="sRGB">
<feFlood flood-opacity="0" result="BackgroundImageFix"/>
<feBlend mode="normal" in="SourceGraphic" in2="BackgroundImageFix" result="shape"/>
<feGaussianBlur stdDeviation="0.125" result="effect1_foregroundBlur_1162_873"/>
</filter>
<filter id="filter18_f_1162_873" x="10.287" y="32.8255" width="13.296" height="9.94948" filterUnits="userSpaceOnUse" color-interpolation-filters="sRGB">
<feFlood flood-opacity="0" result="BackgroundImageFix"/>
<feBlend mode="normal" in="SourceGraphic" in2="BackgroundImageFix" result="shape"/>
<feGaussianBlur stdDeviation="0.075" result="effect1_foregroundBlur_1162_873"/>
</filter>
<radialGradient id="paint0_radial_1162_873" cx="0" cy="0" r="1" gradientUnits="userSpaceOnUse" gradientTransform="translate(27.888 32.5) rotate(90) scale(16.3125 5.48437)">
<stop stop-color="#70647F"/>
<stop offset="1" stop-color="#70647F" stop-opacity="0"/>
</radialGradient>
<radialGradient id="paint1_radial_1162_873" cx="0" cy="0" r="1" gradientUnits="userSpaceOnUse" gradientTransform="translate(5.997 30.016) scale(1.96875 10.5938)">
<stop stop-color="#5D516A"/>
<stop offset="1" stop-color="#5D516A" stop-opacity="0"/>
</radialGradient>
<radialGradient id="paint2_radial_1162_873" cx="0" cy="0" r="1" gradientUnits="userSpaceOnUse" gradientTransform="translate(16.947 29.851) rotate(-90) scale(7.07812 20.479)">
<stop stop-color="#47404D"/>
<stop offset="1" stop-color="#3B2D3A"/>
</radialGradient>
<radialGradient id="paint3_radial_1162_873" cx="0" cy="0" r="1" gradientUnits="userSpaceOnUse" gradientTransform="translate(16.935 23.1715) rotate(90) scale(8.90625 11.3131)">
<stop offset="0.932" stop-color="#342542" stop-opacity="0"/>
<stop offset="0.995" stop-color="#342542"/>
</radialGradient>
<radialGradient id="paint4_radial_1162_873" cx="0" cy="0" r="1" gradientUnits="userSpaceOnUse" gradientTransform="translate(16.3095 21.157) rotate(145.631) scale(10.6906 14.7389)">
<stop offset="0.928" stop-color="#6A656F" stop-opacity="0"/>
<stop offset="1" stop-color="#6A656F"/>
</radialGradient>
<radialGradient id="paint5_radial_1162_873" cx="0" cy="0" r="1" gradientUnits="userSpaceOnUse" gradientTransform="translate(15.9345 20.8045) rotate(34.266) scale(12.2799 16.9299)">
<stop offset="0.933" stop-color="#6A656F" stop-opacity="0"/>
<stop offset="1" stop-color="#615B67"/>
</radialGradient>
<radialGradient id="paint6_radial_1162_873" cx="0" cy="0" r="1" gradientUnits="userSpaceOnUse" gradientTransform="translate(16.935 33.25) rotate(-90) scale(15.0938 15.9681)">
<stop offset="0.506" stop-color="#57525D" stop-opacity="0"/>
<stop offset="1" stop-color="#57525D"/>
</radialGradient>
<radialGradient id="paint7_radial_1162_873" cx="0" cy="0" r="1" gradientUnits="userSpaceOnUse" gradientTransform="translate(16.935 20.8045) rotate(90) scale(5.78906 7.56307)">
<stop offset="0.316" stop-color="#361E27"/>
<stop offset="1" stop-color="#361E27" stop-opacity="0"/>
</radialGradient>
<radialGradient id="paint8_radial_1162_873" cx="0" cy="0" r="1" gradientUnits="userSpaceOnUse" gradientTransform="translate(25.221 15.403) rotate(103.169) scale(5.76558 6.84905)">
<stop offset="0.043" stop-color="#FFC135"/>
<stop offset="1" stop-color="#E26839"/>
</radialGradient>
<radialGradient id="paint9_radial_1162_873" cx="0" cy="0" r="1" gradientUnits="userSpaceOnUse" gradientTransform="translate(24.0975 15.8065) rotate(53.9003) scale(0.749654 0.636853)">
<stop stop-color="#E18C2A"/>
<stop offset="1" stop-color="#E18C2A" stop-opacity="0"/>
</radialGradient>
<radialGradient id="paint10_radial_1162_873" cx="0" cy="0" r="1" gradientUnits="userSpaceOnUse" gradientTransform="translate(8.50799 15.58) rotate(71.2339) scale(6.23955 2.83616)">
<stop stop-color="#D57A26"/>
<stop offset="1" stop-color="#D06A3C"/>
</radialGradient>
<radialGradient id="paint11_radial_1162_873" cx="0" cy="0" r="1" gradientUnits="userSpaceOnUse" gradientTransform="translate(9.50399 15.5695) rotate(72.2898) scale(1.57642 1.38285)">
<stop offset="0.263" stop-color="#BE691E"/>
<stop offset="0.977" stop-color="#BE691E" stop-opacity="0"/>
</radialGradient>
<radialGradient id="paint12_radial_1162_873" cx="0" cy="0" r="1" gradientUnits="userSpaceOnUse" gradientTransform="translate(19.029 25.399) rotate(-135.444) scale(2.13796 4.51916)">
<stop stop-color="#D89D21"/>
<stop offset="1" stop-color="#CF7B39"/>
</radialGradient>
<radialGradient id="paint13_radial_1162_873" cx="0" cy="0" r="1" gradientUnits="userSpaceOnUse" gradientTransform="translate(21.093 13.987) rotate(180) scale(7.87451 13.9299)">
<stop stop-color="#FFE846"/>
<stop offset="1" stop-color="#F5A129"/>
</radialGradient>
<radialGradient id="paint14_radial_1162_873" cx="0" cy="0" r="1" gradientUnits="userSpaceOnUse" gradientTransform="translate(17.6688 10.1887) rotate(94.715) scale(13.6869 15.6872)">
<stop offset="0.623" stop-color="#FBA036" stop-opacity="0"/>
<stop offset="0.979" stop-color="#C56B42"/>
</radialGradient>
<radialGradient id="paint15_radial_1162_873" cx="0" cy="0" r="1" gradientUnits="userSpaceOnUse" gradientTransform="translate(24.63 13.639) rotate(93.774) scale(9.21108 3.38636)">
<stop offset="0.39" stop-color="#FFD930"/>
<stop offset="1" stop-color="#FFD930" stop-opacity="0"/>
</radialGradient>
<radialGradient id="paint16_radial_1162_873" cx="0" cy="0" r="1" gradientUnits="userSpaceOnUse" gradientTransform="translate(13.7145 12.208) rotate(-90) scale(2.12964 2.56398)">
<stop offset="0.276" stop-color="#F59632"/>
<stop offset="1" stop-color="#F59632" stop-opacity="0"/>
</radialGradient>
<radialGradient id="paint17_radial_1162_873" cx="0" cy="0" r="1" gradientUnits="userSpaceOnUse" gradientTransform="translate(20.613 11.5885) rotate(-90) scale(2.31248 2.99936)">
<stop offset="0.178" stop-color="#FFBE3A"/>
<stop offset="1" stop-color="#FFBE3A" stop-opacity="0"/>
</radialGradient>
<radialGradient id="paint18_radial_1162_873" cx="0" cy="0" r="1" gradientUnits="userSpaceOnUse" gradientTransform="translate(15.9375 4.69) rotate(90) scale(3.72357 9.51981)">
<stop offset="0.634" stop-color="#E28222"/>
<stop offset="1" stop-color="#E28222" stop-opacity="0"/>
</radialGradient>
<linearGradient id="paint19_linear_1162_873" x1="16.8645" y1="15.2335" x2="18.1515" y2="15.2335" gradientUnits="userSpaceOnUse">
<stop stop-color="#FFC92F"/>
<stop offset="1" stop-color="#FFEA47"/>
</linearGradient>
<linearGradient id="paint20_linear_1162_873" x1="15.249" y1="14.9995" x2="16.866" y2="15.0895" gradientUnits="userSpaceOnUse">
<stop stop-color="#F49F22"/>
<stop offset="1" stop-color="#F49F22" stop-opacity="0"/>
</linearGradient>
<linearGradient id="paint21_linear_1162_873" x1="16.8645" y1="15.8335" x2="16.8645" y2="17.1175" gradientUnits="userSpaceOnUse">
<stop stop-color="#E88830" stop-opacity="0"/>
<stop offset="0.845" stop-color="#E88830"/>
</linearGradient>
<linearGradient id="paint22_linear_1162_873" x1="16.8645" y1="12.4495" x2="16.8645" y2="13.081" gradientUnits="userSpaceOnUse">
<stop stop-color="#FAC137"/>
<stop offset="1" stop-color="#FAC137" stop-opacity="0"/>
</linearGradient>
<radialGradient id="paint23_radial_1162_873" cx="0" cy="0" r="1" gradientUnits="userSpaceOnUse" gradientTransform="translate(15.168 18.9412) rotate(-60.732) scale(1.06959 3.11252)">
<stop stop-color="#FFB534"/>
<stop offset="1" stop-color="#FFB534" stop-opacity="0"/>
</radialGradient>
<radialGradient id="paint24_radial_1162_873" cx="0" cy="0" r="1" gradientUnits="userSpaceOnUse" gradientTransform="translate(16.8645 19.318) rotate(-90) scale(1.08561 4.36772)">
<stop stop-color="#89014E"/>
<stop offset="1" stop-color="#87004D"/>
</radialGradient>
<linearGradient id="paint25_linear_1162_873" x1="24.9435" y1="5.45654" x2="9.69451" y2="5.45654" gradientUnits="userSpaceOnUse">
<stop stop-color="#FFE235"/>
<stop offset="1" stop-color="#D29935"/>
</linearGradient>
<radialGradient id="paint26_radial_1162_873" cx="0" cy="0" r="1" gradientUnits="userSpaceOnUse" gradientTransform="translate(8.98801 11.605) rotate(-90) scale(8.61426 15.2628)">
<stop offset="0.315" stop-color="#C98537"/>
<stop offset="1" stop-color="#C98537" stop-opacity="0"/>
</radialGradient>
<radialGradient id="paint27_radial_1162_873" cx="0" cy="0" r="1" gradientUnits="userSpaceOnUse" gradientTransform="translate(24.186 11.605) rotate(-90) scale(5.47171 9.69482)">
<stop stop-color="#FFB52A"/>
<stop offset="1" stop-color="#FFB52A" stop-opacity="0"/>
</radialGradient>
<radialGradient id="paint28_radial_1162_873" cx="0" cy="0" r="1" gradientUnits="userSpaceOnUse" gradientTransform="translate(23.049 2.14904) rotate(-160.666) scale(6.55517 3.49106)">
<stop offset="0.347" stop-color="#FFE639"/>
<stop offset="1" stop-color="#FFE639" stop-opacity="0"/>
</radialGradient>
<radialGradient id="paint29_radial_1162_873" cx="0" cy="0" r="1" gradientUnits="userSpaceOnUse" gradientTransform="translate(15.501 -0.249458) rotate(58.4649) scale(2.60668 6.03584)">
<stop offset="0.287" stop-color="#F3C130"/>
<stop offset="1" stop-color="#F3C130" stop-opacity="0"/>
</radialGradient>
<radialGradient id="paint30_radial_1162_873" cx="0" cy="0" r="1" gradientUnits="userSpaceOnUse" gradientTransform="translate(17.246 1.92225) rotate(160.16) scale(6.09604 1.69668)">
<stop stop-color="#FFDD30"/>
<stop offset="1" stop-color="#FFDC2B" stop-opacity="0"/>
</radialGradient>
<radialGradient id="paint31_radial_1162_873" cx="0" cy="0" r="1" gradientUnits="userSpaceOnUse" gradientTransform="translate(8.68357 9.09245) rotate(-57.724) scale(9.07765 10.0571)">
<stop offset="0.093" stop-color="#D67227"/>
<stop offset="0.233" stop-color="#EF8A23"/>
<stop offset="1" stop-color="#EF8A23" stop-opacity="0"/>
</radialGradient>
<radialGradient id="paint32_radial_1162_873" cx="0" cy="0" r="1" gradientUnits="userSpaceOnUse" gradientTransform="translate(22.317 3.67002) rotate(13.3074) scale(5.24059 2.9309)">
<stop stop-color="#FFEB3B"/>
<stop offset="1" stop-color="#FFEB3B" stop-opacity="0"/>
</radialGradient>
<radialGradient id="paint33_radial_1162_873" cx="0" cy="0" r="1" gradientUnits="userSpaceOnUse" gradientTransform="translate(24.5904 10.606) rotate(-120.119) scale(6.44952 3.59685)">
<stop stop-color="#EB8F29"/>
<stop offset="1" stop-color="#EB8F29" stop-opacity="0"/>
</radialGradient>
<radialGradient id="paint34_radial_1162_873" cx="0" cy="0" r="1" gradientUnits="userSpaceOnUse" gradientTransform="translate(23.655 10.1545) rotate(-120.695) scale(3.8577 2.76311)">
<stop offset="0.394" stop-color="#E48421"/>
<stop offset="1" stop-color="#E48421" stop-opacity="0"/>
</radialGradient>
<radialGradient id="paint35_radial_1162_873" cx="0" cy="0" r="1" gradientUnits="userSpaceOnUse" gradientTransform="translate(24.0855 3.49602) rotate(166.509) scale(7.43277 8.03511)">
<stop offset="0.735" stop-color="#F29415" stop-opacity="0"/>
<stop offset="1" stop-color="#F29415"/>
</radialGradient>
<radialGradient id="paint36_radial_1162_873" cx="0" cy="0" r="1" gradientUnits="userSpaceOnUse" gradientTransform="translate(22.065 3.30702) rotate(107.002) scale(0.60441 2.76331)">
<stop offset="0.461" stop-color="#FFCE3C"/>
<stop offset="1" stop-color="#FFCE3C" stop-opacity="0"/>
</radialGradient>
<radialGradient id="paint37_radial_1162_873" cx="0" cy="0" r="1" gradientUnits="userSpaceOnUse" gradientTransform="translate(20.151 12.607) rotate(90) scale(1.22166 1.94321)">
<stop offset="0.802" stop-color="#925C51"/>
<stop offset="1" stop-color="#85534D"/>
</radialGradient>
<radialGradient id="paint38_radial_1162_873" cx="0" cy="0" r="1" gradientUnits="userSpaceOnUse" gradientTransform="translate(19.8056 12.7324) rotate(-127.812) scale(0.56895 0.783301)">
<stop offset="0.766" stop-color="#FFE6E2" stop-opacity="0"/>
<stop offset="0.966" stop-color="#FFE6E2"/>
</radialGradient>
<linearGradient id="paint39_linear_1162_873" x1="21.321" y1="12.6865" x2="20.85" y2="12.9775" gradientUnits="userSpaceOnUse">
<stop stop-color="#B4948D"/>
<stop offset="1" stop-color="#B4948D" stop-opacity="0"/>
</linearGradient>
<radialGradient id="paint40_radial_1162_873" cx="0" cy="0" r="1" gradientUnits="userSpaceOnUse" gradientTransform="translate(13.5765 12.6055) rotate(90) scale(1.22173 1.9433)">
<stop offset="0.802" stop-color="#925C51"/>
<stop offset="1" stop-color="#85534D"/>
</radialGradient>
<linearGradient id="paint41_linear_1162_873" x1="14.6955" y1="12.6865" x2="14.2245" y2="12.976" gradientUnits="userSpaceOnUse">
<stop stop-color="#B4948D"/>
<stop offset="1" stop-color="#B4948D" stop-opacity="0"/>
</linearGradient>
<radialGradient id="paint42_radial_1162_873" cx="0" cy="0" r="1" gradientUnits="userSpaceOnUse" gradientTransform="translate(13.3692 12.8922) rotate(-118.811) scale(0.74319 0.893356)">
<stop offset="0.766" stop-color="#FFE6E2" stop-opacity="0"/>
<stop offset="0.966" stop-color="#FFE6E2"/>
</radialGradient>
<linearGradient id="paint43_linear_1162_873" x1="26.559" y1="12.7285" x2="24.7425" y2="16.006" gradientUnits="userSpaceOnUse">
<stop stop-color="#FFE343"/>
<stop offset="1" stop-color="#FFC136"/>
</linearGradient>
<radialGradient id="paint44_radial_1162_873" cx="0" cy="0" r="1" gradientUnits="userSpaceOnUse" gradientTransform="translate(23.82 12.628) rotate(74.3476) scale(3.50909 3.34794)">
<stop offset="0.856" stop-color="#E1943D" stop-opacity="0"/>
<stop offset="1" stop-color="#E08F2E"/>
</radialGradient>
<radialGradient id="paint45_radial_1162_873" cx="0" cy="0" r="1" gradientUnits="userSpaceOnUse" gradientTransform="translate(24.3645 13.4485) rotate(-53.9203) scale(2.01489 1.68888)">
<stop offset="0.664" stop-color="#FFBD22"/>
<stop offset="1" stop-color="#FFBD22" stop-opacity="0"/>
</radialGradient>
<linearGradient id="paint46_linear_1162_873" x1="8.05353" y1="13.789" x2="10.2495" y2="13.597" gradientUnits="userSpaceOnUse">
<stop stop-color="#E39726"/>
<stop offset="1" stop-color="#D9851D"/>
</linearGradient>
<radialGradient id="paint47_radial_1162_873" cx="0" cy="0" r="1" gradientUnits="userSpaceOnUse" gradientTransform="translate(8.93702 12.8811) rotate(101.248) scale(3.18826 3.13437)">
<stop offset="0.775" stop-color="#C77937" stop-opacity="0"/>
<stop offset="1" stop-color="#C77937"/>
</radialGradient>
<linearGradient id="paint48_linear_1162_873" x1="28.47" y1="11.2405" x2="30.249" y2="11.2405" gradientUnits="userSpaceOnUse">
<stop stop-color="#33203C"/>
<stop offset="1" stop-color="#61546D"/>
</linearGradient>
<radialGradient id="paint49_radial_1162_873" cx="0" cy="0" r="1" gradientUnits="userSpaceOnUse" gradientTransform="translate(29.7975 15.3295) rotate(-90) scale(3.5021 0.270466)">
<stop stop-color="#70635D"/>
<stop offset="1" stop-color="#70635D" stop-opacity="0"/>
</radialGradient>
<radialGradient id="paint50_radial_1162_873" cx="0" cy="0" r="1" gradientUnits="userSpaceOnUse" gradientTransform="translate(21.0906 7.02597) rotate(-102.428) scale(5.88087 31.3746)">
<stop stop-color="#534D5B"/>
<stop offset="1" stop-color="#2B2135"/>
</radialGradient>
<linearGradient id="paint51_linear_1162_873" x1="19.5915" y1="3.76602" x2="17.6685" y2="-2.79648" gradientUnits="userSpaceOnUse">
<stop stop-color="#3D294B"/>
<stop offset="1" stop-color="#433A4D"/>
</linearGradient>
<radialGradient id="paint52_radial_1162_873" cx="0" cy="0" r="1" gradientUnits="userSpaceOnUse" gradientTransform="translate(25.545 1.42152) rotate(90) scale(1.40625 19.0312)">
<stop stop-color="#696070"/>
<stop offset="0.867" stop-color="#696070" stop-opacity="0"/>
</radialGradient>
<radialGradient id="paint53_radial_1162_873" cx="0" cy="0" r="1" gradientUnits="userSpaceOnUse" gradientTransform="translate(3.09002 2.35902) scale(11.625 1.3125)">
<stop stop-color="#75707B"/>
<stop offset="0.935" stop-color="#75707B" stop-opacity="0"/>
</radialGradient>
<radialGradient id="paint54_radial_1162_873" cx="0" cy="0" r="1" gradientUnits="userSpaceOnUse" gradientTransform="translate(30.1845 15.8875) rotate(126.437) scale(2.05219 1.83924)">
<stop stop-color="#686071"/>
<stop offset="0.661" stop-color="#402A4C"/>
</radialGradient>
<radialGradient id="paint55_radial_1162_873" cx="0" cy="0" r="1" gradientUnits="userSpaceOnUse" gradientTransform="translate(28.1775 16.474) rotate(-6.43652) scale(1.20212 1.40996)">
<stop offset="0.087" stop-color="#685352"/>
<stop offset="1" stop-color="#685352" stop-opacity="0"/>
</radialGradient>
<linearGradient id="paint56_linear_1162_873" x1="nan" y1="nan" x2="nan" y2="nan" gradientUnits="userSpaceOnUse">
<stop stop-color="#60546C"/>
<stop offset="1" stop-color="#504B55"/>
</linearGradient>
<linearGradient id="paint57_linear_1162_873" x1="31.161" y1="20.038" x2="27.6825" y2="20.038" gradientUnits="userSpaceOnUse">
<stop stop-color="#F9B72A"/>
<stop offset="0.897" stop-color="#FAAC28"/>
</linearGradient>
<radialGradient id="paint58_radial_1162_873" cx="0" cy="0" r="1" gradientUnits="userSpaceOnUse" gradientTransform="translate(31.327 19.8562) rotate(169.33) scale(1.67298 8.34602)">
<stop offset="0.286" stop-color="#FFD93A"/>
<stop offset="1" stop-color="#FFD93A" stop-opacity="0"/>
</radialGradient>
<radialGradient id="paint59_radial_1162_873" cx="0" cy="0" r="1" gradientUnits="userSpaceOnUse" gradientTransform="translate(29.4345 23.1715) rotate(-90) scale(1.96875 4.33565)">
<stop offset="0.422" stop-color="#A16739"/>
<stop offset="1" stop-color="#DB9820" stop-opacity="0"/>
</radialGradient>
<radialGradient id="paint60_radial_1162_873" cx="0" cy="0" r="1" gradientUnits="userSpaceOnUse" gradientTransform="translate(29.4345 17.488) rotate(90) scale(0.59766 2.07266)">
<stop offset="0.161" stop-color="#845D03"/>
<stop offset="1" stop-color="#EBA429" stop-opacity="0"/>
</radialGradient>
<radialGradient id="paint61_radial_1162_873" cx="0" cy="0" r="1" gradientUnits="userSpaceOnUse" gradientTransform="translate(0.442518 42.82) rotate(-90) scale(24.5601 6.54696)">
<stop stop-color="#766C83"/>
<stop offset="0.441" stop-color="#58496A"/>
<stop offset="1" stop-color="#4D4159"/>
</radialGradient>
<radialGradient id="paint62_radial_1162_873" cx="0" cy="0" r="1" gradientUnits="userSpaceOnUse" gradientTransform="translate(6.09002 42.82) rotate(-90) scale(15.7803 1.2362)">
<stop offset="0.286" stop-color="#4F445B"/>
<stop offset="1" stop-color="#4F445B" stop-opacity="0"/>
</radialGradient>
<linearGradient id="paint63_linear_1162_873" x1="6.30752" y1="39.9235" x2="5.66852" y2="39.9235" gradientUnits="userSpaceOnUse">
<stop offset="0.444" stop-color="#433850"/>
<stop offset="1" stop-color="#433850" stop-opacity="0"/>
</linearGradient>
<radialGradient id="paint64_radial_1162_873" cx="0" cy="0" r="1" gradientUnits="userSpaceOnUse" gradientTransform="translate(30.603 42.82) rotate(-100.465) scale(15.5483 4.36693)">
<stop stop-color="#736782"/>
<stop offset="1" stop-color="#5F5070"/>
</radialGradient>
<radialGradient id="paint65_radial_1162_873" cx="0" cy="0" r="1" gradientUnits="userSpaceOnUse" gradientTransform="translate(27.525 32.563) rotate(87.413) scale(18.0685 1.05521)">
<stop offset="0.177" stop-color="#3F2A51"/>
<stop offset="1" stop-color="#3F2A51" stop-opacity="0"/>
</radialGradient>
<linearGradient id="paint66_linear_1162_873" x1="16.935" y1="42.625" x2="16.935" y2="32.974" gradientUnits="userSpaceOnUse">
<stop stop-color="#3F3748"/>
<stop offset="1" stop-color="#3F3748" stop-opacity="0"/>
</linearGradient>
<linearGradient id="paint67_linear_1162_873" x1="16.935" y1="42.625" x2="16.935" y2="32.974" gradientUnits="userSpaceOnUse">
<stop stop-color="#3F3748"/>
<stop offset="1" stop-color="#3F3748" stop-opacity="0"/>
</linearGradient>
<linearGradient id="paint68_linear_1162_873" x1="16.935" y1="42.625" x2="16.935" y2="32.974" gradientUnits="userSpaceOnUse">
<stop stop-color="#3F3748"/>
<stop offset="1" stop-color="#3F3748" stop-opacity="0"/>
</linearGradient>
</defs>
</svg>
