<svg xmlns="http://www.w3.org/2000/svg" width="25" height="24" viewBox="0 0 25 24" fill="none">
<path d="M19.25 14.25C18.5871 14.2496 17.9429 14.47 17.4191 14.8762L15.2525 13.1887C15.4161 12.8138 15.5003 12.4091 15.5 12C15.5 11.9306 15.5 11.8612 15.4925 11.7928L16.7328 11.3794C17.1252 11.9846 17.7225 12.4281 18.4153 12.6288C19.1081 12.8295 19.85 12.7738 20.5051 12.4721C21.1603 12.1703 21.6847 11.6426 21.9825 10.9857C22.2802 10.3287 22.3313 9.58649 22.1264 8.89494C21.9215 8.20338 21.4743 7.60881 20.8667 7.22012C20.2591 6.83144 19.5318 6.67466 18.818 6.77852C18.1043 6.88238 17.4518 7.23991 16.9802 7.78563C16.5086 8.33135 16.2494 9.02871 16.25 9.74999C16.25 9.81936 16.25 9.88874 16.2575 9.95718L15.0172 10.3706C14.7453 9.95027 14.3725 9.60465 13.9329 9.36525C13.4932 9.12585 13.0006 9.00028 12.5 8.99999C12.3345 9.00033 12.1692 9.01413 12.0059 9.04124L11.3647 7.59374C11.9184 7.15133 12.2976 6.52716 12.4351 5.83188C12.5725 5.13659 12.4594 4.41509 12.1157 3.79525C11.772 3.17541 11.22 2.69727 10.5575 2.44556C9.89491 2.19386 9.16465 2.18485 8.4961 2.42014C7.82755 2.65542 7.26389 3.11981 6.90503 3.73098C6.54616 4.34216 6.41527 5.06065 6.53555 5.75911C6.65582 6.45758 7.0195 7.0909 7.56212 7.54684C8.10475 8.00277 8.79127 8.25187 9.50001 8.24999C9.66554 8.24965 9.83078 8.23585 9.99407 8.20874L10.6353 9.65249C10.0915 10.0829 9.71411 10.6888 9.56756 11.3666C9.42102 12.0445 9.51445 12.7522 9.83189 13.3687L7.42157 15.51C6.815 15.1011 6.0801 14.9274 5.35464 15.0216C4.62918 15.1157 3.96296 15.4712 3.48086 16.0214C2.99875 16.5716 2.73387 17.2788 2.73585 18.0103C2.73783 18.7419 3.00655 19.4476 3.49162 19.9952C3.9767 20.5428 4.64484 20.8946 5.3708 20.9849C6.09676 21.0751 6.8307 20.8974 7.43505 20.4852C8.03941 20.073 8.47268 19.4546 8.65366 18.7458C8.83464 18.0369 8.7509 17.2865 8.41814 16.635L10.8284 14.4937C11.3503 14.8451 11.9697 15.023 12.5985 15.0022C13.2273 14.9813 13.8335 14.7627 14.3309 14.3775L16.4975 16.065C16.3345 16.4388 16.2502 16.8422 16.25 17.25C16.25 17.8433 16.426 18.4234 16.7556 18.9167C17.0852 19.41 17.5538 19.7946 18.102 20.0216C18.6501 20.2487 19.2533 20.3081 19.8353 20.1923C20.4172 20.0766 20.9518 19.7909 21.3713 19.3713C21.7909 18.9518 22.0766 18.4172 22.1924 17.8353C22.3081 17.2533 22.2487 16.6501 22.0217 16.1019C21.7946 15.5538 21.4101 15.0852 20.9167 14.7556C20.4234 14.4259 19.8434 14.25 19.25 14.25ZM19.25 8.24999C19.5467 8.24999 19.8367 8.33796 20.0834 8.50278C20.33 8.66761 20.5223 8.90187 20.6358 9.17596C20.7494 9.45005 20.7791 9.75165 20.7212 10.0426C20.6633 10.3336 20.5205 10.6009 20.3107 10.8106C20.1009 11.0204 19.8336 11.1633 19.5426 11.2212C19.2517 11.279 18.9501 11.2493 18.676 11.1358C18.4019 11.0223 18.1676 10.83 18.0028 10.5833C17.838 10.3367 17.75 10.0467 17.75 9.74999C17.75 9.35216 17.908 8.97063 18.1894 8.68933C18.4707 8.40802 18.8522 8.24999 19.25 8.24999ZM8.00001 5.24999C8.00001 4.95332 8.08799 4.66331 8.25281 4.41663C8.41763 4.16996 8.6519 3.9777 8.92599 3.86417C9.20008 3.75064 9.50168 3.72093 9.79265 3.77881C10.0836 3.83669 10.3509 3.97955 10.5607 4.18933C10.7704 4.39911 10.9133 4.66638 10.9712 4.95735C11.0291 5.24833 10.9994 5.54993 10.8858 5.82401C10.7723 6.0981 10.58 6.33237 10.3334 6.49719C10.0867 6.66202 9.79668 6.74999 9.50001 6.74999C9.10219 6.74999 8.72066 6.59195 8.43935 6.31065C8.15805 6.02934 8.00001 5.64781 8.00001 5.24999ZM5.75001 19.5C5.45334 19.5 5.16333 19.412 4.91666 19.2472C4.66998 19.0824 4.47772 18.8481 4.36419 18.574C4.25066 18.2999 4.22096 17.9983 4.27883 17.7074C4.33671 17.4164 4.47957 17.1491 4.68935 16.9393C4.89913 16.7296 5.1664 16.5867 5.45738 16.5288C5.74835 16.4709 6.04995 16.5006 6.32404 16.6142C6.59813 16.7277 6.83239 16.92 6.99722 17.1666C7.16204 17.4133 7.25001 17.7033 7.25001 18C7.25001 18.3978 7.09198 18.7793 6.81067 19.0606C6.52937 19.342 6.14784 19.5 5.75001 19.5ZM19.25 18.75C18.9533 18.75 18.6633 18.662 18.4167 18.4972C18.17 18.3324 17.9777 18.0981 17.8642 17.824C17.7507 17.5499 17.721 17.2483 17.7788 16.9574C17.8367 16.6664 17.9796 16.3991 18.1894 16.1893C18.3991 15.9796 18.6664 15.8367 18.9574 15.7788C19.2483 15.7209 19.5499 15.7506 19.824 15.8642C20.0981 15.9777 20.3324 16.17 20.4972 16.4166C20.662 16.6633 20.75 16.9533 20.75 17.25C20.75 17.6478 20.592 18.0293 20.3107 18.3106C20.0294 18.592 19.6478 18.75 19.25 18.75Z" fill="white"/>
</svg>
