<svg width="64" height="64" viewBox="0 0 64 64" fill="none" xmlns="http://www.w3.org/2000/svg">
<g clip-path="url(#clip0_746_3622)">
<rect width="64" height="64" fill="url(#paint0_linear_746_3622)"/>
<path d="M29.0165 22.9756L16.9856 19.6461L27.2359 24.5017C27.3476 24.5546 27.4375 24.6445 27.4904 24.7562L32.346 35.0065L29.0165 22.9756Z" fill="#E7584D"/>
<path d="M28.7497 23.0469L16.7398 19.5806C16.489 19.5082 16.4797 19.1562 16.7264 19.0708L41.5009 10.4912L29.013 22.9791C28.9441 23.048 28.8432 23.0739 28.7497 23.0469Z" fill="#E97A71"/>
<path d="M28.9452 23.2424L32.4115 35.2523C32.4839 35.5031 32.8359 35.5123 32.9213 35.2656L41.5009 10.4912L29.013 22.9791C28.9441 23.0479 28.9182 23.1488 28.9452 23.2424Z" fill="#B4313C"/>
<path d="M49.2141 29.642L43.45 28.0468L48.361 30.3731C48.4145 30.3985 48.4576 30.4416 48.483 30.4951L50.8094 35.4062L49.2141 29.642Z" fill="#D75046"/>
<path d="M49.0863 29.6762L43.3322 28.0154C43.212 27.9807 43.2076 27.8121 43.3258 27.7712L55.1957 23.6605L49.2125 29.6437C49.1795 29.6767 49.1312 29.6891 49.0863 29.6762Z" fill="#D57068"/>
<path d="M49.18 29.7698L50.8407 35.5239C50.8754 35.6441 51.044 35.6485 51.085 35.5303L55.1956 23.6605L49.2125 29.6436C49.1795 29.6766 49.167 29.725 49.18 29.7698Z" fill="#A32D37"/>
<rect x="-33.4222" y="29.1555" width="80" height="80" rx="40" fill="url(#paint1_linear_746_3622)"/>
<rect x="18.1334" y="43.0222" width="62.2222" height="62.2222" rx="31.1111" fill="url(#paint2_linear_746_3622)"/>
<path d="M22.6196 44.1024L6.40131 39.6139L20.2194 46.1596C20.3699 46.2309 20.4911 46.3521 20.5624 46.5026L27.1081 60.3207L22.6196 44.1024Z" fill="#FB6055"/>
<path d="M22.2601 44.1984L6.07 39.5256C5.73189 39.428 5.71945 38.9535 6.05199 38.8384L39.4495 27.2725L22.6151 44.1069C22.5222 44.1998 22.3862 44.2348 22.2601 44.1984Z" fill="#FF867C"/>
<path d="M22.5236 44.4619L27.1964 60.652C27.294 60.9901 27.7685 61.0025 27.8837 60.67L39.4496 27.2725L22.6151 44.1069C22.5222 44.1998 22.4872 44.3358 22.5236 44.4619Z" fill="#C63542"/>
</g>
<defs>
<linearGradient id="paint0_linear_746_3622" x1="93.6889" y1="-31.4667" x2="40" y2="41.0667" gradientUnits="userSpaceOnUse">
<stop stop-color="#103E7D"/>
<stop offset="0.465" stop-color="#0670ED"/>
<stop offset="1" stop-color="#5E92F3"/>
</linearGradient>
<linearGradient id="paint1_linear_746_3622" x1="19.2093" y1="29.1555" x2="1.05144" y2="69.1555" gradientUnits="userSpaceOnUse">
<stop stop-color="#71FFC4"/>
<stop offset="1" stop-color="#189D5D"/>
</linearGradient>
<linearGradient id="paint2_linear_746_3622" x1="35.9111" y1="51.1999" x2="41.0667" y2="66.3111" gradientUnits="userSpaceOnUse">
<stop stop-color="#B2FFC8"/>
<stop offset="1" stop-color="#72C689"/>
</linearGradient>
<clipPath id="clip0_746_3622">
<rect width="64" height="64" rx="12.0889" fill="white"/>
</clipPath>
</defs>
</svg>
