<svg width="377" height="157" viewBox="0 0 377 157" fill="none" xmlns="http://www.w3.org/2000/svg">
<path d="M15.5863 143.815C14.6938 143.815 13.8975 143.771 13.1975 143.684C12.515 143.596 11.885 143.456 11.3075 143.264C10.7475 143.071 10.1788 142.826 9.60125 142.529V139.09C10.3363 139.685 11.1938 140.157 12.1738 140.507C13.1713 140.84 14.1863 141.006 15.2188 141.006C16.1638 141.006 16.8725 140.822 17.345 140.455C17.835 140.07 18.08 139.519 18.08 138.801C18.08 138.259 17.8788 137.821 17.4763 137.489C17.0913 137.156 16.575 136.867 15.9275 136.622C15.28 136.377 14.5713 136.124 13.8013 135.861C13.2588 135.669 12.725 135.459 12.2 135.231C11.6925 134.986 11.2288 134.68 10.8088 134.312C10.4063 133.945 10.0825 133.49 9.8375 132.947C9.5925 132.387 9.47 131.705 9.47 130.9C9.47 130.252 9.5925 129.614 9.8375 128.984C10.0825 128.354 10.4588 127.794 10.9663 127.304C11.4738 126.796 12.13 126.394 12.935 126.096C13.74 125.799 14.7025 125.65 15.8225 125.65C16.5225 125.65 17.135 125.694 17.66 125.781C18.2025 125.869 18.7188 126 19.2088 126.175C19.6988 126.35 20.2063 126.569 20.7313 126.831V130.27C20.3113 129.972 19.865 129.692 19.3925 129.43C18.92 129.15 18.4125 128.922 17.87 128.747C17.345 128.572 16.7763 128.476 16.1638 128.459C15.5338 128.441 14.9913 128.511 14.5363 128.669C14.0813 128.826 13.7313 129.062 13.4863 129.377C13.2413 129.692 13.1188 130.069 13.1188 130.506C13.1188 131.049 13.2675 131.486 13.565 131.819C13.8625 132.134 14.2825 132.396 14.825 132.606C15.3675 132.816 15.9888 133.035 16.6888 133.262C17.3713 133.472 18.01 133.709 18.605 133.971C19.2175 134.216 19.7513 134.531 20.2063 134.916C20.6788 135.301 21.0463 135.774 21.3088 136.334C21.5888 136.894 21.7288 137.576 21.7288 138.381C21.7288 139.361 21.5013 140.262 21.0463 141.085C20.5913 141.907 19.9088 142.572 18.9988 143.08C18.1063 143.57 16.9688 143.815 15.5863 143.815ZM24.887 143.5V130.401H28.2207L28.247 143.5H24.887ZM24.8082 128.301V125.571H28.2995V128.301H24.8082ZM43.8509 134.68V143.5H40.5434V135.257C40.5434 134.925 40.4997 134.61 40.4122 134.312C40.3247 133.997 40.1759 133.726 39.9659 133.499C39.7559 133.254 39.4672 133.07 39.0997 132.947C38.7322 132.807 38.2597 132.737 37.6822 132.737C37.2447 132.737 36.8159 132.781 36.3959 132.869C35.9934 132.956 35.6347 133.07 35.3197 133.21V143.5H31.9859V131.372C32.3534 131.197 32.7909 131.022 33.2984 130.847C33.8059 130.672 34.3572 130.524 34.9522 130.401C35.5472 130.261 36.1422 130.156 36.7372 130.086C37.3497 129.999 37.9272 129.955 38.4697 129.955C39.6947 129.955 40.7009 130.121 41.4884 130.454C42.2759 130.769 42.8622 131.276 43.2472 131.976C43.6497 132.659 43.8509 133.56 43.8509 134.68ZM40.2809 132.16C40.8409 131.687 41.4797 131.294 42.1972 130.979C42.9147 130.646 43.6672 130.392 44.4547 130.217C45.2422 130.042 45.9947 129.955 46.7122 129.955C47.9372 129.955 48.9434 130.121 49.7309 130.454C50.5184 130.769 51.1047 131.276 51.4897 131.976C51.8922 132.659 52.0934 133.56 52.0934 134.68V143.5H48.7859V135.257C48.7859 134.925 48.7422 134.61 48.6547 134.312C48.5672 133.997 48.4184 133.726 48.2084 133.499C47.9984 133.254 47.7097 133.07 47.3422 132.947C46.9747 132.807 46.5022 132.737 45.9247 132.737C45.4872 132.737 45.0584 132.799 44.6384 132.921C44.2359 133.044 43.8772 133.227 43.5622 133.472L40.2809 132.16ZM61.8125 143.894C60.5875 143.894 59.52 143.701 58.61 143.316C57.7175 142.914 57.0175 142.319 56.51 141.531C56.02 140.744 55.775 139.737 55.775 138.512V130.27H59.1088V138.171C59.1088 139.151 59.3275 139.877 59.765 140.35C60.2025 140.822 60.885 141.059 61.8125 141.059C62.775 141.059 63.4663 140.822 63.8863 140.35C64.3238 139.877 64.5425 139.151 64.5425 138.171V130.27H67.6925V138.512C67.6925 140.332 67.1675 141.689 66.1175 142.581C65.085 143.456 63.65 143.894 61.8125 143.894ZM74.6684 143.5H71.3609V125.282H74.6684V143.5ZM83.2686 143.894C82.5336 143.894 81.8336 143.824 81.1686 143.684C80.5036 143.544 79.9086 143.316 79.3836 143.001C78.8586 142.669 78.4386 142.222 78.1236 141.662C77.8261 141.085 77.6773 140.367 77.6773 139.51C77.6773 138.617 77.8611 137.865 78.2286 137.252C78.5961 136.622 79.1298 136.15 79.8298 135.835C80.5473 135.502 81.4223 135.336 82.4548 135.336C83.0848 135.336 83.6711 135.397 84.2136 135.52C84.7561 135.625 85.2461 135.774 85.6836 135.966C86.1211 136.159 86.4798 136.369 86.7598 136.596L86.9961 138.46C86.6286 138.215 86.1561 138.022 85.5786 137.882C85.0186 137.725 84.4061 137.646 83.7411 137.646C82.8136 137.646 82.1223 137.795 81.6673 138.092C81.2123 138.39 80.9848 138.854 80.9848 139.484C80.9848 139.921 81.1073 140.289 81.3523 140.586C81.5973 140.866 81.9123 141.085 82.2973 141.242C82.6823 141.382 83.0848 141.452 83.5048 141.452C84.4673 141.452 85.1586 141.391 85.5786 141.269C86.0161 141.129 86.2348 140.84 86.2348 140.402V135.179C86.2348 134.321 85.9636 133.7 85.4211 133.315C84.8786 132.912 84.1173 132.711 83.1373 132.711C82.3848 132.711 81.6148 132.842 80.8273 133.105C80.0398 133.35 79.4011 133.674 78.9111 134.076V131.057C79.3836 130.76 80.0923 130.497 81.0373 130.27C81.9823 130.042 82.9973 129.929 84.0823 129.929C84.5373 129.929 85.0186 129.972 85.5261 130.06C86.0336 130.147 86.5148 130.287 86.9698 130.48C87.4423 130.672 87.8711 130.944 88.2561 131.294C88.6411 131.626 88.9473 132.055 89.1748 132.58C89.4023 133.087 89.5161 133.709 89.5161 134.444V140.717C89.5161 141.54 89.2536 142.187 88.7286 142.66C88.2036 143.115 87.4773 143.43 86.5498 143.605C85.6223 143.798 84.5286 143.894 83.2686 143.894ZM98.268 143.92C96.903 143.92 95.8618 143.587 95.1443 142.922C94.4268 142.24 94.068 141.26 94.068 139.982V132.895H92.0205V130.27H94.068V126.621H97.5068V130.27H100.578V132.895H97.5068V139.457C97.5068 140 97.6118 140.402 97.8218 140.665C98.0318 140.927 98.3993 141.059 98.9243 141.059C99.2043 141.059 99.493 141.015 99.7905 140.927C100.106 140.822 100.368 140.7 100.578 140.56V143.447C100.228 143.623 99.843 143.745 99.423 143.815C99.0205 143.885 98.6355 143.92 98.268 143.92ZM109.488 143.894C108.176 143.894 107.029 143.631 106.049 143.106C105.069 142.564 104.308 141.776 103.766 140.744C103.223 139.711 102.952 138.469 102.952 137.016C102.952 134.706 103.503 132.947 104.606 131.74C105.726 130.515 107.292 129.902 109.304 129.902C110.757 129.902 111.921 130.217 112.796 130.847C113.688 131.477 114.336 132.379 114.738 133.551C115.158 134.706 115.359 136.089 115.342 137.699H105.104L104.842 135.441H112.691L112.061 136.386C112.026 135.004 111.781 134.015 111.326 133.42C110.888 132.807 110.179 132.501 109.199 132.501C108.604 132.501 108.079 132.641 107.624 132.921C107.187 133.184 106.846 133.63 106.601 134.26C106.373 134.89 106.259 135.756 106.259 136.859C106.259 138.224 106.583 139.274 107.231 140.009C107.878 140.726 108.867 141.085 110.197 141.085C110.739 141.085 111.256 141.032 111.746 140.927C112.253 140.805 112.717 140.665 113.137 140.507C113.574 140.35 113.942 140.201 114.239 140.061V143.001C113.627 143.264 112.927 143.474 112.139 143.631C111.369 143.806 110.486 143.894 109.488 143.894ZM125.761 143.5V125.991H137.495V128.852H129.331V133.289H136.418V136.176H129.331V140.639H137.495V143.5H125.761ZM147.283 138.066L143.45 143.5H139.906L145.681 135.914L147.283 138.066ZM153.556 143.5H149.566L140.038 130.27H144.001L153.556 143.5ZM146.206 135.809L150.091 130.27H153.688L147.755 138.066L146.206 135.809ZM162.801 143.868C162.503 143.868 162.101 143.833 161.593 143.763C161.103 143.71 160.596 143.596 160.071 143.421C159.563 143.246 159.117 142.992 158.732 142.66L159.493 141.61V148.514H156.212V132.947C156.212 132.387 156.378 131.915 156.711 131.53C157.061 131.145 157.516 130.839 158.076 130.611C158.653 130.366 159.292 130.191 159.992 130.086C160.71 129.964 161.453 129.902 162.223 129.902C163.483 129.902 164.603 130.121 165.583 130.559C166.563 130.996 167.342 131.74 167.92 132.79C168.497 133.84 168.786 135.266 168.786 137.069C168.786 138.434 168.55 139.632 168.077 140.665C167.605 141.68 166.922 142.467 166.03 143.027C165.137 143.587 164.061 143.868 162.801 143.868ZM161.961 141.164C162.731 141.164 163.37 141.015 163.877 140.717C164.402 140.42 164.787 139.965 165.032 139.352C165.295 138.722 165.426 137.935 165.426 136.99C165.426 136.15 165.33 135.406 165.137 134.759C164.962 134.111 164.63 133.612 164.14 133.262C163.667 132.895 162.993 132.711 162.118 132.711C161.261 132.711 160.605 132.799 160.15 132.974C159.712 133.149 159.493 133.394 159.493 133.709V140.507C159.878 140.717 160.29 140.884 160.727 141.006C161.165 141.111 161.576 141.164 161.961 141.164ZM175.029 143.5H171.721V125.282H175.029V143.5ZM184.495 143.894C182.325 143.894 180.697 143.29 179.612 142.082C178.527 140.875 177.985 139.134 177.985 136.859C177.985 134.426 178.536 132.659 179.639 131.556C180.759 130.454 182.369 129.902 184.469 129.902C185.939 129.902 187.164 130.165 188.144 130.69C189.124 131.197 189.85 131.967 190.322 133C190.812 134.032 191.057 135.319 191.057 136.859C191.057 139.134 190.489 140.875 189.351 142.082C188.231 143.29 186.612 143.894 184.495 143.894ZM184.495 141.164C185.265 141.164 185.886 140.989 186.359 140.639C186.849 140.289 187.207 139.799 187.435 139.169C187.662 138.521 187.776 137.751 187.776 136.859C187.776 135.861 187.654 135.047 187.409 134.417C187.181 133.787 186.822 133.324 186.332 133.026C185.86 132.729 185.247 132.58 184.495 132.58C183.725 132.58 183.104 132.737 182.631 133.052C182.159 133.367 181.809 133.84 181.581 134.47C181.371 135.1 181.266 135.896 181.266 136.859C181.266 138.259 181.52 139.326 182.027 140.061C182.535 140.796 183.357 141.164 184.495 141.164ZM194.023 143.5V131.556C194.268 131.399 194.697 131.189 195.31 130.926C195.94 130.664 196.666 130.436 197.488 130.244C198.311 130.034 199.142 129.929 199.982 129.929C200.612 129.929 201.111 129.981 201.478 130.086C201.863 130.174 202.161 130.287 202.371 130.427V132.947C202.021 132.895 201.618 132.851 201.163 132.816C200.726 132.781 200.271 132.772 199.798 132.79C199.343 132.79 198.897 132.807 198.46 132.842C198.04 132.877 197.672 132.921 197.357 132.974V143.5H194.023ZM210.105 143.894C208.792 143.894 207.646 143.631 206.666 143.106C205.686 142.564 204.925 141.776 204.382 140.744C203.84 139.711 203.568 138.469 203.568 137.016C203.568 134.706 204.12 132.947 205.222 131.74C206.342 130.515 207.908 129.902 209.921 129.902C211.373 129.902 212.537 130.217 213.412 130.847C214.305 131.477 214.952 132.379 215.355 133.551C215.775 134.706 215.976 136.089 215.958 137.699H205.721L205.458 135.441H213.307L212.677 136.386C212.642 135.004 212.397 134.015 211.942 133.42C211.505 132.807 210.796 132.501 209.816 132.501C209.221 132.501 208.696 132.641 208.241 132.921C207.803 133.184 207.462 133.63 207.217 134.26C206.99 134.89 206.876 135.756 206.876 136.859C206.876 138.224 207.2 139.274 207.847 140.009C208.495 140.726 209.483 141.085 210.813 141.085C211.356 141.085 211.872 141.032 212.362 140.927C212.87 140.805 213.333 140.665 213.753 140.507C214.191 140.35 214.558 140.201 214.856 140.061V143.001C214.243 143.264 213.543 143.474 212.756 143.631C211.986 143.806 211.102 143.894 210.105 143.894ZM234.069 143.946C231.531 143.946 229.615 143.36 228.32 142.187C227.025 140.997 226.377 139.195 226.377 136.78V125.991H230.079V136.675C230.079 138.18 230.394 139.3 231.024 140.035C231.654 140.752 232.625 141.111 233.937 141.111C235.18 141.111 236.134 140.752 236.799 140.035C237.481 139.3 237.822 138.18 237.822 136.675V125.991H241.235V136.78C241.235 138.39 240.937 139.729 240.342 140.796C239.747 141.864 238.916 142.66 237.849 143.185C236.781 143.693 235.521 143.946 234.069 143.946ZM245.036 131.372C245.404 131.197 245.841 131.022 246.349 130.847C246.856 130.672 247.408 130.524 248.003 130.401C248.598 130.261 249.193 130.156 249.788 130.086C250.4 129.999 250.978 129.955 251.52 129.955C252.745 129.955 253.76 130.121 254.565 130.454C255.388 130.769 256 131.276 256.403 131.976C256.823 132.659 257.033 133.56 257.033 134.68V143.5H253.725V135.257C253.725 134.925 253.681 134.61 253.594 134.312C253.506 133.997 253.358 133.726 253.148 133.499C252.938 133.254 252.649 133.07 252.281 132.947C251.914 132.807 251.441 132.737 250.864 132.737C250.426 132.737 249.98 132.781 249.525 132.869C249.07 132.956 248.685 133.07 248.37 133.21V143.5H245.036V131.372ZM266.789 143.894C265.879 143.894 265.013 143.789 264.191 143.579C263.368 143.369 262.642 143.001 262.012 142.476C261.382 141.951 260.883 141.225 260.516 140.297C260.166 139.37 259.991 138.189 259.991 136.754C259.991 134.636 260.507 132.965 261.539 131.74C262.572 130.515 264.138 129.902 266.238 129.902C266.536 129.902 266.921 129.937 267.393 130.008C267.866 130.077 268.347 130.2 268.837 130.375C269.344 130.532 269.782 130.786 270.149 131.136L269.414 132.186V124.784H272.696V140.402C272.696 140.997 272.521 141.514 272.171 141.951C271.838 142.389 271.383 142.756 270.806 143.054C270.228 143.334 269.589 143.544 268.889 143.684C268.189 143.824 267.489 143.894 266.789 143.894ZM266.894 141.059C267.612 141.059 268.207 140.971 268.679 140.796C269.169 140.621 269.414 140.367 269.414 140.035V133.315C269.029 133.087 268.618 132.921 268.181 132.816C267.743 132.711 267.323 132.659 266.921 132.659C266.116 132.659 265.451 132.807 264.926 133.105C264.401 133.385 264.007 133.84 263.744 134.47C263.482 135.082 263.351 135.87 263.351 136.832C263.351 137.672 263.456 138.407 263.666 139.037C263.876 139.667 264.234 140.166 264.742 140.534C265.267 140.884 265.984 141.059 266.894 141.059ZM282.19 143.894C280.877 143.894 279.731 143.631 278.751 143.106C277.771 142.564 277.01 141.776 276.467 140.744C275.925 139.711 275.653 138.469 275.653 137.016C275.653 134.706 276.205 132.947 277.307 131.74C278.427 130.515 279.993 129.902 282.006 129.902C283.458 129.902 284.622 130.217 285.497 130.847C286.39 131.477 287.037 132.379 287.44 133.551C287.86 134.706 288.061 136.089 288.043 137.699H277.806L277.543 135.441H285.392L284.762 136.386C284.727 135.004 284.482 134.015 284.027 133.42C283.59 132.807 282.881 132.501 281.901 132.501C281.306 132.501 280.781 132.641 280.326 132.921C279.888 133.184 279.547 133.63 279.302 134.26C279.075 134.89 278.961 135.756 278.961 136.859C278.961 138.224 279.285 139.274 279.932 140.009C280.58 140.726 281.568 141.085 282.898 141.085C283.441 141.085 283.957 141.032 284.447 140.927C284.955 140.805 285.418 140.665 285.838 140.507C286.276 140.35 286.643 140.201 286.941 140.061V143.001C286.328 143.264 285.628 143.474 284.841 143.631C284.071 143.806 283.187 143.894 282.19 143.894ZM290.974 143.5V131.556C291.219 131.399 291.648 131.189 292.26 130.926C292.89 130.664 293.616 130.436 294.439 130.244C295.261 130.034 296.093 129.929 296.933 129.929C297.563 129.929 298.061 129.981 298.429 130.086C298.814 130.174 299.111 130.287 299.321 130.427V132.947C298.971 132.895 298.569 132.851 298.114 132.816C297.676 132.781 297.221 132.772 296.749 132.79C296.294 132.79 295.848 132.807 295.41 132.842C294.99 132.877 294.623 132.921 294.308 132.974V143.5H290.974ZM305.574 143.894C304.629 143.894 303.824 143.789 303.159 143.579C302.494 143.386 301.856 143.15 301.243 142.87V139.877C301.646 140.14 302.066 140.394 302.503 140.639C302.958 140.866 303.439 141.05 303.947 141.19C304.472 141.33 305.032 141.4 305.627 141.4C306.327 141.4 306.843 141.269 307.176 141.006C307.526 140.726 307.701 140.394 307.701 140.009C307.701 139.641 307.569 139.361 307.307 139.169C307.044 138.959 306.703 138.784 306.283 138.644C305.863 138.504 305.417 138.364 304.944 138.224C304.507 138.119 304.061 137.979 303.606 137.804C303.168 137.629 302.766 137.392 302.398 137.095C302.031 136.797 301.733 136.421 301.506 135.966C301.296 135.494 301.191 134.925 301.191 134.26C301.191 133.472 301.348 132.807 301.663 132.265C301.978 131.722 302.389 131.285 302.897 130.952C303.404 130.62 303.964 130.384 304.577 130.244C305.189 130.086 305.784 130.008 306.362 130.008C307.359 130.042 308.164 130.165 308.777 130.375C309.389 130.567 309.967 130.821 310.509 131.136L310.536 133.84C309.923 133.507 309.328 133.21 308.751 132.947C308.173 132.667 307.517 132.527 306.782 132.527C306.099 132.527 305.566 132.65 305.181 132.895C304.813 133.122 304.629 133.446 304.629 133.866C304.629 134.234 304.743 134.531 304.971 134.759C305.198 134.986 305.496 135.161 305.863 135.284C306.231 135.406 306.633 135.529 307.071 135.651C307.508 135.774 307.963 135.914 308.436 136.071C308.908 136.211 309.346 136.421 309.748 136.701C310.151 136.981 310.474 137.357 310.719 137.83C310.982 138.285 311.113 138.897 311.113 139.667C311.096 140.682 310.824 141.505 310.299 142.135C309.774 142.747 309.083 143.194 308.226 143.474C307.386 143.754 306.502 143.894 305.574 143.894ZM319.188 143.92C317.823 143.92 316.782 143.587 316.065 142.922C315.347 142.24 314.988 141.26 314.988 139.982V132.895H312.941V130.27H314.988V126.621H318.427V130.27H321.498V132.895H318.427V139.457C318.427 140 318.532 140.402 318.742 140.665C318.952 140.927 319.32 141.059 319.845 141.059C320.125 141.059 320.413 141.015 320.711 140.927C321.026 140.822 321.288 140.7 321.498 140.56V143.447C321.148 143.623 320.763 143.745 320.343 143.815C319.941 143.885 319.556 143.92 319.188 143.92ZM329.516 143.894C328.781 143.894 328.081 143.824 327.416 143.684C326.751 143.544 326.156 143.316 325.631 143.001C325.106 142.669 324.686 142.222 324.371 141.662C324.074 141.085 323.925 140.367 323.925 139.51C323.925 138.617 324.109 137.865 324.476 137.252C324.844 136.622 325.377 136.15 326.077 135.835C326.795 135.502 327.67 135.336 328.702 135.336C329.332 135.336 329.919 135.397 330.461 135.52C331.004 135.625 331.494 135.774 331.931 135.966C332.369 136.159 332.727 136.369 333.007 136.596L333.244 138.46C332.876 138.215 332.404 138.022 331.826 137.882C331.266 137.725 330.654 137.646 329.989 137.646C329.061 137.646 328.37 137.795 327.915 138.092C327.46 138.39 327.232 138.854 327.232 139.484C327.232 139.921 327.355 140.289 327.6 140.586C327.845 140.866 328.16 141.085 328.545 141.242C328.93 141.382 329.332 141.452 329.752 141.452C330.715 141.452 331.406 141.391 331.826 141.269C332.264 141.129 332.482 140.84 332.482 140.402V135.179C332.482 134.321 332.211 133.7 331.669 133.315C331.126 132.912 330.365 132.711 329.385 132.711C328.632 132.711 327.862 132.842 327.075 133.105C326.287 133.35 325.649 133.674 325.159 134.076V131.057C325.631 130.76 326.34 130.497 327.285 130.27C328.23 130.042 329.245 129.929 330.33 129.929C330.785 129.929 331.266 129.972 331.774 130.06C332.281 130.147 332.762 130.287 333.217 130.48C333.69 130.672 334.119 130.944 334.504 131.294C334.889 131.626 335.195 132.055 335.422 132.58C335.65 133.087 335.764 133.709 335.764 134.444V140.717C335.764 141.54 335.501 142.187 334.976 142.66C334.451 143.115 333.725 143.43 332.797 143.605C331.87 143.798 330.776 143.894 329.516 143.894ZM339.449 131.372C339.817 131.197 340.254 131.022 340.762 130.847C341.269 130.672 341.821 130.524 342.416 130.401C343.011 130.261 343.606 130.156 344.201 130.086C344.813 129.999 345.391 129.955 345.933 129.955C347.158 129.955 348.173 130.121 348.978 130.454C349.801 130.769 350.413 131.276 350.816 131.976C351.236 132.659 351.446 133.56 351.446 134.68V143.5H348.138V135.257C348.138 134.925 348.094 134.61 348.007 134.312C347.919 133.997 347.771 133.726 347.561 133.499C347.351 133.254 347.062 133.07 346.694 132.947C346.327 132.807 345.854 132.737 345.277 132.737C344.839 132.737 344.393 132.781 343.938 132.869C343.483 132.956 343.098 133.07 342.783 133.21V143.5H339.449V131.372ZM361.202 143.894C360.292 143.894 359.426 143.789 358.603 143.579C357.781 143.369 357.055 143.001 356.425 142.476C355.795 141.951 355.296 141.225 354.928 140.297C354.578 139.37 354.403 138.189 354.403 136.754C354.403 134.636 354.92 132.965 355.952 131.74C356.985 130.515 358.551 129.902 360.651 129.902C360.948 129.902 361.333 129.937 361.806 130.008C362.278 130.077 362.76 130.2 363.25 130.375C363.757 130.532 364.195 130.786 364.562 131.136L363.827 132.186V124.784H367.108V140.402C367.108 140.997 366.933 141.514 366.583 141.951C366.251 142.389 365.796 142.756 365.218 143.054C364.641 143.334 364.002 143.544 363.302 143.684C362.602 143.824 361.902 143.894 361.202 143.894ZM361.307 141.059C362.025 141.059 362.62 140.971 363.092 140.796C363.582 140.621 363.827 140.367 363.827 140.035V133.315C363.442 133.087 363.031 132.921 362.593 132.816C362.156 132.711 361.736 132.659 361.333 132.659C360.528 132.659 359.863 132.807 359.338 133.105C358.813 133.385 358.42 133.84 358.157 134.47C357.895 135.082 357.763 135.87 357.763 136.832C357.763 137.672 357.868 138.407 358.078 139.037C358.288 139.667 358.647 140.166 359.155 140.534C359.68 140.884 360.397 141.059 361.307 141.059Z" fill="#A20000"/>
<path d="M20 88.5V28.47H30.98L63.74 73.29L60.23 80.49V28.47H71.57V88.5H61.67L28.1 43.5L31.43 38.01V88.5H20ZM101.869 89.85C97.3691 89.85 93.4391 88.95 90.0791 87.15C86.7191 85.29 84.1091 82.59 82.2491 79.05C80.3891 75.51 79.4591 71.25 79.4591 66.27C79.4591 58.35 81.3491 52.32 85.1291 48.18C88.9691 43.98 94.3391 41.88 101.239 41.88C106.219 41.88 110.209 42.96 113.209 45.12C116.269 47.28 118.489 50.37 119.869 54.39C121.309 58.35 121.999 63.09 121.939 68.61H86.8391L85.9391 60.87H112.849L110.689 64.11C110.569 59.37 109.729 55.98 108.169 53.94C106.669 51.84 104.239 50.79 100.879 50.79C98.8391 50.79 97.0391 51.27 95.4791 52.23C93.9791 53.13 92.8091 54.66 91.9691 56.82C91.1891 58.98 90.7991 61.95 90.7991 65.73C90.7991 70.41 91.9091 74.01 94.1291 76.53C96.3491 78.99 99.7391 80.22 104.299 80.22C106.159 80.22 107.929 80.04 109.609 79.68C111.349 79.26 112.939 78.78 114.379 78.24C115.879 77.7 117.139 77.19 118.159 76.71V86.79C116.059 87.69 113.659 88.41 110.959 88.95C108.319 89.55 105.289 89.85 101.869 89.85ZM146.657 89.94C141.977 89.94 138.407 88.8 135.947 86.52C133.487 84.18 132.257 80.82 132.257 76.44V52.14H125.237V43.14H132.257V30.63H144.047V43.14H154.577V52.14H144.047V74.64C144.047 76.5 144.407 77.88 145.127 78.78C145.847 79.68 147.107 80.13 148.907 80.13C149.867 80.13 150.857 79.98 151.877 79.68C152.957 79.32 153.857 78.9 154.577 78.42V88.32C153.377 88.92 152.057 89.34 150.617 89.58C149.237 89.82 147.917 89.94 146.657 89.94ZM162.896 88.5V28.47H175.136V78.6H202.496V88.5H162.896ZM228.679 89.85C221.239 89.85 215.659 87.78 211.939 83.64C208.219 79.5 206.359 73.53 206.359 65.73C206.359 57.39 208.249 51.33 212.029 47.55C215.869 43.77 221.389 41.88 228.589 41.88C233.629 41.88 237.829 42.78 241.189 44.58C244.549 46.32 247.039 48.96 248.659 52.5C250.339 56.04 251.179 60.45 251.179 65.73C251.179 73.53 249.229 79.5 245.329 83.64C241.489 87.78 235.939 89.85 228.679 89.85ZM228.679 80.49C231.319 80.49 233.449 79.89 235.069 78.69C236.749 77.49 237.979 75.81 238.759 73.65C239.539 71.43 239.929 68.79 239.929 65.73C239.929 62.31 239.509 59.52 238.669 57.36C237.889 55.2 236.659 53.61 234.979 52.59C233.359 51.57 231.259 51.06 228.679 51.06C226.039 51.06 223.909 51.6 222.289 52.68C220.669 53.76 219.469 55.38 218.689 57.54C217.969 59.7 217.609 62.43 217.609 65.73C217.609 70.53 218.479 74.19 220.219 76.71C221.959 79.23 224.779 80.49 228.679 80.49ZM276.378 89.85C272.118 89.73 268.488 88.8 265.488 87.06C262.488 85.32 260.178 82.8 258.558 79.5C256.998 76.14 256.218 72.03 256.218 67.17C256.218 62.07 256.848 57.9 258.108 54.66C259.368 51.36 261.108 48.81 263.328 47.01C265.608 45.15 268.248 43.86 271.248 43.14C274.308 42.42 277.548 42.06 280.968 42.06C284.508 42.06 287.628 42.51 290.328 43.41C293.088 44.31 295.248 45.63 296.808 47.37C298.428 49.11 299.238 51.33 299.238 54.03V89.49C299.238 92.25 298.788 94.74 297.888 96.96C296.988 99.24 295.608 101.19 293.748 102.81C291.948 104.43 289.668 105.66 286.908 106.5C284.148 107.4 280.848 107.85 277.008 107.85C273.468 107.85 270.378 107.58 267.738 107.04C265.098 106.5 262.998 105.9 261.438 105.24V95.07C262.338 95.43 263.568 95.85 265.128 96.33C266.748 96.87 268.548 97.32 270.528 97.68C272.508 98.04 274.488 98.22 276.468 98.22C279.648 98.22 282.048 97.8 283.668 96.96C285.348 96.12 286.488 95.01 287.088 93.63C287.688 92.25 287.988 90.75 287.988 89.13V82.02L290.598 84C289.578 85.14 288.318 86.16 286.818 87.06C285.378 87.9 283.758 88.56 281.958 89.04C280.218 89.58 278.358 89.85 276.378 89.85ZM278.808 81.03C280.428 81.03 282.018 80.85 283.578 80.49C285.198 80.07 286.668 79.47 287.988 78.69V56.37C287.988 54.93 287.598 53.88 286.818 53.22C286.098 52.5 285.108 52.02 283.848 51.78C282.648 51.48 281.328 51.33 279.888 51.33C276.708 51.33 274.218 51.99 272.418 53.31C270.678 54.63 269.448 56.46 268.728 58.8C268.008 61.14 267.648 63.75 267.648 66.63C267.648 71.01 268.608 74.52 270.528 77.16C272.448 79.74 275.208 81.03 278.808 81.03ZM328.572 89.85C321.132 89.85 315.552 87.78 311.832 83.64C308.112 79.5 306.252 73.53 306.252 65.73C306.252 57.39 308.142 51.33 311.922 47.55C315.762 43.77 321.282 41.88 328.482 41.88C333.522 41.88 337.722 42.78 341.082 44.58C344.442 46.32 346.932 48.96 348.552 52.5C350.232 56.04 351.072 60.45 351.072 65.73C351.072 73.53 349.122 79.5 345.222 83.64C341.382 87.78 335.832 89.85 328.572 89.85ZM328.572 80.49C331.212 80.49 333.342 79.89 334.962 78.69C336.642 77.49 337.872 75.81 338.652 73.65C339.432 71.43 339.822 68.79 339.822 65.73C339.822 62.31 339.402 59.52 338.562 57.36C337.782 55.2 336.552 53.61 334.872 52.59C333.252 51.57 331.152 51.06 328.572 51.06C325.932 51.06 323.802 51.6 322.182 52.68C320.562 53.76 319.362 55.38 318.582 57.54C317.862 59.7 317.502 62.43 317.502 65.73C317.502 70.53 318.372 74.19 320.112 76.71C321.852 79.23 324.672 80.49 328.572 80.49Z" fill="#454545"/>
</svg>
