<svg width="64" height="65" viewBox="0 0 64 65" fill="none" xmlns="http://www.w3.org/2000/svg">
<g clip-path="url(#clip0_543_7513)">
<rect y="0.5" width="64" height="64" rx="12.0889" fill="url(#paint0_linear_543_7513)"/>
<rect y="20.0555" width="64" height="24.8889" fill="url(#paint1_linear_543_7513)"/>
<path d="M19.1844 32.5195L4.80591 11.2643L13.6614 32.0291C13.7951 32.3424 13.7951 32.6967 13.6614 33.01L4.80591 53.7747L19.1844 32.5195Z" fill="#FB6055"/>
<path d="M18.6189 32.2384L4.6645 11.0709C4.3265 10.5581 4.85304 9.91636 5.4219 10.1477L60.4446 32.5195H19.1409C18.9307 32.5195 18.7346 32.4139 18.6189 32.2384Z" fill="#FF867C"/>
<path d="M18.6189 32.8006L4.6645 53.9681C4.3265 54.4809 4.85304 55.1226 5.4219 54.8913L60.4446 32.5195H19.1409C18.9307 32.5195 18.7346 32.6251 18.6189 32.8006Z" fill="#C63542"/>
</g>
<defs>
<linearGradient id="paint0_linear_543_7513" x1="89.6" y1="32.5" x2="-31.1111" y2="32.5" gradientUnits="userSpaceOnUse">
<stop stop-color="#103E7D"/>
<stop offset="0.465" stop-color="#0670ED"/>
<stop offset="1" stop-color="#5E92F3"/>
</linearGradient>
<linearGradient id="paint1_linear_543_7513" x1="64" y1="32.5" x2="-40.1778" y2="32.5" gradientUnits="userSpaceOnUse">
<stop stop-color="#3FC5D4"/>
<stop offset="1" stop-color="#CFFFFF" stop-opacity="0"/>
</linearGradient>
<clipPath id="clip0_543_7513">
<rect width="64" height="64" fill="white" transform="translate(0 0.5)"/>
</clipPath>
</defs>
</svg>
