<svg xmlns="http://www.w3.org/2000/svg" width="25" height="24" viewBox="0 0 25 24" fill="none">
<path d="M16.0419 21H20C20.3978 21 20.7794 20.842 21.0607 20.5607C21.342 20.2794 21.5 19.8978 21.5 19.5V15.9703C21.4994 15.8473 21.4685 15.7264 21.4101 15.6181C21.3517 15.5099 21.2676 15.4176 21.1651 15.3496C21.0627 15.2815 20.9451 15.2397 20.8227 15.2277C20.7002 15.2158 20.5768 15.2342 20.4631 15.2812C20.1973 15.391 19.9126 15.4474 19.625 15.4472C18.3847 15.4472 17.375 14.4066 17.375 13.1287C17.375 11.8509 18.3847 10.8103 19.625 10.8103C19.9126 10.8101 20.1973 10.8665 20.4631 10.9762C20.5774 11.0235 20.7015 11.0419 20.8245 11.0296C20.9475 11.0173 21.0656 10.9748 21.1682 10.9058C21.2709 10.8369 21.3549 10.7437 21.4127 10.6344C21.4706 10.5252 21.5006 10.4033 21.5 10.2797V6.75C21.5 6.35218 21.342 5.97064 21.0607 5.68934C20.7794 5.40804 20.3978 5.25 20 5.25H16.6044C16.6183 5.12549 16.6252 5.00029 16.625 4.875C16.625 3.97989 16.2694 3.12145 15.6365 2.48851C15.0035 1.85558 14.1451 1.5 13.25 1.5C12.3549 1.5 11.4964 1.85558 10.8635 2.48851C10.2306 3.12145 9.875 3.97989 9.875 4.875C9.87478 5.00029 9.88167 5.12549 9.89562 5.25H6.5C6.10217 5.25 5.72064 5.40804 5.43934 5.68934C5.15803 5.97064 5 6.35218 5 6.75V9.77063C4.87549 9.75667 4.75029 9.74978 4.625 9.75C3.72989 9.75 2.87145 10.1056 2.23851 10.7385C1.60558 11.3715 1.25 12.2299 1.25 13.125C1.25 14.0201 1.60558 14.8785 2.23851 15.5115C2.87145 16.1444 3.72989 16.5 4.625 16.5C4.75029 16.5002 4.87549 16.4933 5 16.4794V19.5C5 19.8978 5.15803 20.2794 5.43934 20.5607C5.72064 20.842 6.10217 21 6.5 21H10.4581" fill="white"/>
</svg>
