<svg xmlns="http://www.w3.org/2000/svg" width="25" height="24" viewBox="0 0 25 24" fill="none">
  <path d="M21.9399 19.848L17.4877 15.3939C18.8226 13.6544 19.4458 11.4722 19.2309 9.28998C19.0161 7.10781 17.9792 5.08907 16.3306 3.64328C14.6821 2.19749 12.5453 1.4329 10.3538 1.50463C8.16221 1.57635 6.07999 2.47901 4.5295 4.0295C2.97901 5.57999 2.07635 7.66221 2.00463 9.85376C1.9329 12.0453 2.69749 14.1821 4.14328 15.8306C5.58907 17.4792 7.60781 18.5161 9.78998 18.7309C11.9722 18.9458 14.1544 18.3226 15.8939 16.9877L20.3499 21.4445C20.4545 21.5492 20.5787 21.6322 20.7155 21.6888C20.8522 21.7455 20.9987 21.7746 21.1467 21.7746C21.2947 21.7746 21.4413 21.7455 21.578 21.6888C21.7147 21.6322 21.839 21.5492 21.9436 21.4445C22.0482 21.3399 22.1313 21.2157 22.1879 21.0789C22.2445 20.9422 22.2737 20.7957 22.2737 20.6477C22.2737 20.4997 22.2445 20.3531 22.1879 20.2164C22.1313 20.0797 22.0482 19.9554 21.9436 19.8508L21.9399 19.848ZM4.26891 10.1439C4.26891 8.88306 4.6428 7.65052 5.3433 6.60215C6.04379 5.55379 7.03943 4.73669 8.20431 4.25418C9.36919 3.77167 10.651 3.64543 11.8876 3.89141C13.1242 4.13739 14.2602 4.74455 15.1517 5.63611C16.0433 6.52767 16.6504 7.66359 16.8964 8.90021C17.1424 10.1368 17.0162 11.4186 16.5336 12.5835C16.0511 13.7484 15.234 14.744 14.1857 15.4445C13.1373 16.145 11.9048 16.5189 10.6439 16.5189C8.95369 16.5172 7.3332 15.845 6.13803 14.6498C4.94286 13.4546 4.27065 11.8341 4.26891 10.1439Z" fill="#0670ED"/>
</svg>
